<svg viewBox="0 0 564 321.15" xmlns="http://www.w3.org/2000/svg"><path d="m188.18 152.54s17.3 10 21.26 23c6.34 20.78 1.11 53.7-14.21 49.64-12.44-3.3-2.6-30.66-9.68-37.74s-15.53-14.53-7.09-34.74z" fill="#2f2962" transform="translate(-93.49 -97.96)"/><path d="m188.29 152.77a0 0 0 0 0 0 .09c9.4 4.68 17.35 11.4 21.86 21.07a41.66 41.66 0 0 1 -.1 35c-.06.12.12.23.18.11 10.38-20.74 1.37-49.12-21.94-56.27z" fill="#2f2962" transform="translate(-93.49 -97.96)"/><path d="m185.45 190.14c-1.72-3.35-4.41-6-6.57-9.05-5.92-8.35-4.17-18.59-.62-27.51a.11.11 0 0 0 -.2-.08c-3.63 7.3-5.69 15.68-2.58 23.57 1.26 3.2 3.44 5.8 5.66 8.38a31.59 31.59 0 0 1 4.4 5.88c1.53 3 1.84 6.32 2.18 9.58 0 .06.09.06.09 0-.23-3.75-.63-7.39-2.36-10.77z" fill="#2f2962" transform="translate(-93.49 -97.96)"/><path d="m125.59 230.63s-17.41 34.19-17.29 43.16 2.22 16.84 5.6 17.72 17.17-16.25 19.39-18.72 11.51-32.44 14.4-37.9-15.44-11.89-22.1-4.26z" fill="#f5bfa9" transform="translate(-93.49 -97.96)"/><path d="m165.25 192.33c-6.75 2.7-17.91 6.52-20.86 9.62s-31.91 40.7-32.53 44.06 13.54 16.53 20 17.76a21.2 21.2 0 0 0 14.75-2.93c2.03-1.5 18.64-68.51 18.64-68.51z" fill="#bfddda" transform="translate(-93.49 -97.96)"/><path d="m234.06 404.66c-17.52 12.33-64.68 15.21-73.73 13.12s-30.88-10.55-32.88-13.48-4.45-41.73-1.45-63.22c1.39-10 5.21-26.42 8.84-41.2 3.13-12.74 6.09-24.23 7.22-29.33a10 10 0 0 0 .45-2.76c-.77-.49-11.28-14.17-9.18-23.47s27.4-49 31.92-52 11.67-1.23 18.51-.64c7.76.68 23.57 13 25.59 19.67 1.66 5.47 2.79 42.14 3.55 56.21a48.11 48.11 0 0 0 .42 5.43c.51 1.49 4.69 20.37 8.51 35.71 1.56 6.28 3.07 12 4.24 15.63 4.06 12.61 11.18 78.09 7.99 80.33z" fill="#bfddda" transform="translate(-93.49 -97.96)"/><path d="m147 218.54a.2.2 0 0 0 -.34-.2 121.37 121.37 0 0 0 -6.35 10.47c.71-2.22 1.55-4.39 2.46-6.58 0-.07-.09-.12-.12-.05a33.94 33.94 0 0 0 -3.39 8.61c-.27.51-.54 1-.81 1.52-2.12 4.1-4.53 8.61-5.43 13.19-1.54 7.82 3.95 17.31 9.26 22.71a.22.22 0 0 0 .31-.31c-5.88-7.14-10.67-16.2-7.26-25.5 3.04-8.33 7.3-16.16 11.67-23.86z" fill="#2f2962" transform="translate(-93.49 -97.96)"/><path d="m221.85 308.72a81 81 0 0 1 -8.66.77 142.22 142.22 0 0 1 -29.23-2 140.35 140.35 0 0 1 -29.69-8.06 17.9 17.9 0 0 0 -10.73-1.17c-2.17.36-4.33.84-6.5 1.23-.74.13-1.46.26-2.2.36 3.13-12.74 6.09-24.23 7.22-29.33 4.86-1.23 9.87-2.06 14.65-3.08 7.6-1.64 14.14 5.37 22.24 5.24 10.36-.17 22.32-9 31.86-5.88.71.23 1.4.48 2.1.74a48.11 48.11 0 0 0 .42 5.43c.51 1.52 4.67 20.4 8.52 35.75z" fill="#a1c9c4" transform="translate(-93.49 -97.96)"/><path d="m161.43 273.5a67.66 67.66 0 0 1 -1.74-33.8 197.82 197.82 0 0 1 9.62-31.9.13.13 0 0 0 -.24-.1 157.93 157.93 0 0 0 -10.36 34.44c-1.79 9.94-2.07 21.42 2.12 30.86-.13 0-9.75 98.49.92 143.77a.22.22 0 0 0 .43-.12c-10.31-45.59-.7-142.98-.75-143.15z" fill="#2f2962" transform="translate(-93.49 -97.96)"/><path d="m169.09 223.22c-.31.54-1.51 1.05-1.9.19a1.1 1.1 0 0 1 1.3-1.55.1.1 0 0 0 .1-.18c-1.28-.82-2.43.88-1.92 2.05s2.58.81 2.51-.49a.05.05 0 0 0 -.09-.02z" fill="#2f2962" transform="translate(-93.49 -97.96)"/><path d="m164.24 253.53c-.31.54-1.51 1.05-1.9.19a1.1 1.1 0 0 1 1.3-1.55.1.1 0 0 0 .1-.18c-1.28-.82-2.43.88-1.92 2.05s2.58.81 2.51-.49a.05.05 0 0 0 -.09-.02z" fill="#2f2962" transform="translate(-93.49 -97.96)"/><path d="m166.48 269.54c-.31.54-1.51 1.05-1.9.19a1.1 1.1 0 0 1 1.3-1.55.1.1 0 0 0 .12-.18c-1.28-.82-2.43.88-1.92 2.05s2.58.81 2.51-.49a.05.05 0 0 0 -.11-.02z" fill="#2f2962" transform="translate(-93.49 -97.96)"/><path d="m165.16 301.46c-.31.54-1.51 1.05-1.9.19a1.1 1.1 0 0 1 1.3-1.55.1.1 0 0 0 .1-.18c-1.28-.82-2.43.88-1.92 2.05s2.58.81 2.51-.49a.05.05 0 0 0 -.09-.02z" fill="#2f2962" transform="translate(-93.49 -97.96)"/><path d="m162.92 335c-.31.54-1.51 1.05-1.9.19a1.1 1.1 0 0 1 1.3-1.55.1.1 0 0 0 .1-.18c-1.28-.82-2.43.88-1.92 2.05s2.58.81 2.51-.49a.05.05 0 0 0 -.09-.02z" fill="#2f2962" transform="translate(-93.49 -97.96)"/><path d="m162.92 366.34c-.31.54-1.51 1.05-1.9.19a1.1 1.1 0 0 1 1.3-1.55.1.1 0 0 0 .1-.18c-1.28-.82-2.43.88-1.92 2.05s2.58.81 2.51-.49a.05.05 0 0 0 -.09-.02z" fill="#2f2962" transform="translate(-93.49 -97.96)"/><path d="m166.48 284.47c-.31.54-1.51 1.05-1.9.19a1.1 1.1 0 0 1 1.3-1.55.1.1 0 0 0 .1-.18c-1.28-.82-2.43.88-1.92 2.05s2.58.81 2.51-.49a.05.05 0 0 0 -.09-.02z" fill="#2f2962" transform="translate(-93.49 -97.96)"/><path d="m163.84 317.83c-.31.54-1.51 1.05-1.9.19a1.1 1.1 0 0 1 1.3-1.55.1.1 0 0 0 .1-.18c-1.28-.82-2.43.88-1.92 2.05s2.58.81 2.51-.49a.05.05 0 0 0 -.09-.02z" fill="#2f2962" transform="translate(-93.49 -97.96)"/><path d="m162.92 351c-.31.54-1.51 1.05-1.9.19a1.1 1.1 0 0 1 1.3-1.55.1.1 0 0 0 .1-.18c-1.28-.82-2.43.88-1.92 2.05s2.58.81 2.51-.49a.05.05 0 0 0 -.09-.02z" fill="#2f2962" transform="translate(-93.49 -97.96)"/><path d="m164.24 398.55c-.31.54-1.51 1.05-1.9.19a1.1 1.1 0 0 1 1.3-1.55.1.1 0 0 0 .1-.18c-1.28-.82-2.43.88-1.92 2.05s2.58.81 2.51-.49a.05.05 0 0 0 -.09-.02z" fill="#2f2962" transform="translate(-93.49 -97.96)"/><path d="m166.88 414.1c-.31.54-1.51 1.05-1.9.19a1.1 1.1 0 0 1 1.3-1.55.1.1 0 0 0 .1-.18c-1.28-.82-2.43.88-1.92 2.05s2.58.81 2.51-.49a.05.05 0 0 0 -.09-.02z" fill="#2f2962" transform="translate(-93.49 -97.96)"/><path d="m162.92 381.52c-.31.54-1.51 1.05-1.9.19a1.1 1.1 0 0 1 1.3-1.55.1.1 0 0 0 .1-.18c-1.28-.82-2.43.88-1.92 2.05s2.58.81 2.51-.49a.05.05 0 0 0 -.09-.02z" fill="#2f2962" transform="translate(-93.49 -97.96)"/><path d="m165.56 238.39c-.31.54-1.51 1.05-1.9.19a1.1 1.1 0 0 1 1.34-1.58.1.1 0 0 0 .1-.18c-1.28-.82-2.43.88-1.92 2.05s2.58.81 2.51-.49a.05.05 0 0 0 -.13.01z" fill="#2f2962" transform="translate(-93.49 -97.96)"/><path d="m164.36 267.77c-6-1.33-11.24.39-17 1.42-.05 0 0 .09 0 .09a41.69 41.69 0 0 0 6.93-.92 47.78 47.78 0 0 1 10-.11.24.24 0 0 0 .07-.48z" fill="#2f2962" transform="translate(-93.49 -97.96)"/><path d="m193.19 267.41c-5.39 4.2-11.58 5.92-18.31 4.36-5.35-1.24-10.05-3.55-15.6-1.94-.08 0-.07.17 0 .16 7.23-.76 13.57 3.71 20.72 3.62a19.38 19.38 0 0 0 13.6-5.77.31.31 0 0 0 -.41-.43z" fill="#2f2962" transform="translate(-93.49 -97.96)"/><rect fill="#e1916e" height="70.88" rx="4.09" transform="matrix(.99725019 -.07410849 .07410849 .99725019 -112.49 -84.67)" width="54.45" x="142.33" y="227.02"/><rect fill="#bec1df" height="7.82" rx="1.69" transform="matrix(.99732724 -.07306413 .07306413 .99732724 -109.65 -85.15)" width="25.81" x="154.27" y="223.46"/><g transform="translate(-93.49 -97.96)"><path d="m173.62 219 .29 4-3.17.23-.13-1.84a1.76 1.76 0 0 0 -1.89-1.63l-4.19.31a1.76 1.76 0 0 0 -1.63 1.89l.13 1.84-3.17.23-.29-4a2.54 2.54 0 0 1 2.36-2.73l8.95-.66a2.55 2.55 0 0 1 2.74 2.36z" fill="#bec1df"/><path d="m220.64 240.72c3.48 2.62 7.94 40.61 8.2 44.9s-4.84 12.53-6.24 12.88-14.49-4.53-17.68-8.72-5-42.27-4.31-44.59 16.79-6.91 20.03-4.47z" fill="#f5bfa9"/><path d="m198.75 199.3c1.7 2.21 17.16 10.43 20 15.89s12.8 45.42 13.74 47.75-10.89 8.63-17 9.72-14.61-1.21-17.61-2.83.87-70.53.87-70.53z" fill="#bfddda"/><path d="m196.14 233c0-.08-.13-.08-.12 0 .67 12.28.92 24.61.58 36.91a.39.39 0 0 0 .78 0 219.67 219.67 0 0 0 -1.24-36.91z" fill="#2f2962"/><path d="m213 214.62a23 23 0 0 0 -15.21 18.38c0 .09.12.13.14 0a24.19 24.19 0 0 1 15.13-18.3c.05-.02.03-.1-.06-.08z" fill="#2f2962"/><path d="m222.87 298.37c-2.78 1.93-31.33 3-45.59.46a188.3 188.3 0 0 1 -28.78-8.19c-6.8-2.55-11.8-5-11.84-6.38-.1-3.16 6.15-10 10.16-9.55s27.69-1.75 36.22-1.2c6.89.45 13.69.71 19.41 1.17s10.55 1.14 13.06 2.42c4.94 2.51 7.36 21.27 7.36 21.27z" fill="#f5bfa9"/><path d="m202.46 274.67a68.8 68.8 0 0 1 -6.64 4.5 77.43 77.43 0 0 1 -22.1 8.83 85.69 85.69 0 0 1 -25.22 2.59c-6.8-2.55-11.8-5-11.84-6.38-.1-3.16 6.15-10 10.16-9.55s27.69-1.75 36.22-1.2c6.89.49 13.7.75 19.42 1.21z" fill="#bf847c"/><path d="m203.21 274.45a.06.06 0 0 0 0 .12c7.52 1.48 12 5.61 15.9 12 .12.21.49.07.4-.17-2.51-6.52-9.11-12.03-16.3-11.95z" fill="#bf847c"/><path d="m113.9 291.51c7 3.92 60.65-11 64-13.18 1-.65 15.31-1.26 17.76-1.58s6.59-3 6.83-4.41a6.12 6.12 0 0 0 -.55-3.33c-.24-.59 1.39-2.88 1.22-3.93a13.29 13.29 0 0 0 -1.53-3.1c-.27-.59.36-3.21 0-3.95s-2-1.62-2.56-2.27.49-1.52-.66-2.21c-3.27-2-19.45 6.54-21.92 7.36s-25.09 1-31 1.72-15.54 1.29-21.65 6.76-9.94 22.12-9.94 22.12z" fill="#f5bfa9"/><path d="m135.87 263.69c-8.58-.19-15 8-18.34 15a.1.1 0 0 0 .18.1c4.65-7.39 9.55-12.52 18.22-14.66a.21.21 0 0 0 -.06-.44z" fill="#bf847c"/><path d="m176.34 182.69c-7.84 1.83-12.27 7.27-14.81 9.76s-9.9 18.15-9.88 20.86 13.75-9.06 16.67-9c2 0 9.31 16 13 15.19 4.67-1 13.25-14.66 13.29-21.94 0-2.41-3.78-8.56-7.21-11.68-3.94-3.59-7.76-3.95-11.06-3.19z" fill="#bfddda"/><path d="m194.73 198a0 0 0 0 0 -.1 0c-2.82 11.49-11.44 21.21-13.32 21.49-2.18.32-11.8-15.59-12.92-15.68-2.09-.16-16.06 9.51-16.26 9.37s1.67-6.55 8.3-19.17a0 0 0 0 0 -.09 0c-7.69 11.75-10 20.65-9 20.64 1.38 0 10.84-6.74 16.57-9.72 2.73 3.83 10.9 15.7 12.9 15.7 3.88-.05 13.34-14.09 13.92-22.63z" fill="#2f2962"/><path d="m191.81 165s-.54 5.41-1.21 11.7c-.1.83-.18 1.68-.28 2.52-.84 7.63-3 17.15-3.48 18-.89 1.72-8.61 9.21-14.79 8.18s-5.25-7.07-5.25-7.07l.11-3.14.2-6.2.54-16.17 21.15-6.94z" fill="#f5bfa9"/><path d="m191.81 165s-.54 5.41-1.21 11.7c-6.24 7.39-14.6 13-23.49 12.28l.54-16.17 21.15-6.94z" fill="#bf847c"/><path d="m145.62 144.34s5.27 29.15-5.3 40.92c0 0 11.4-6.41 11.6-29.18z" fill="#2f2962"/><path d="m156.77 118.57s-9.4 1.34-12.37 12.92c-2.47 9.65 3.25 19 4.42 20 2.08 1.69 13.18-26.49 7.95-32.92z" fill="#2f2962"/><path d="m146.23 149.76c-1.59 28.63 14.36 31.1 19.18 32.18 5.48 1.23 27.1 1.59 31.64-26.72s-8.27-38.1-21.05-39.47-28.19 5.38-29.77 34.01z" fill="#f5bfa9"/><g fill="#2f2962"><path d="m169.83 152.94c0-.07.14.11.12.19-.36 1.92-.45 4.18 1.2 5.09.05 0 0 .12 0 .11-2.15-.63-1.97-3.63-1.32-5.39z"/><path d="m171.86 151.19c3.14.24 2.42 6.51-.49 6.28s-2.14-6.47.49-6.28z"/><path d="m156.38 151.62c0-.07-.15.09-.15.17 0 2-.26 4.19-2 4.82-.06 0-.05.12 0 .11 2.13-.27 2.49-3.25 2.15-5.1z"/><path d="m154.67 149.56c-3.14-.29-3.48 6-.57 6.27s3.19-6.03.57-6.27z"/></g><path d="m165.59 166.87a3 3 0 0 1 -1.62 1.18 5.16 5.16 0 0 1 -2.11-.44.07.07 0 0 0 -.08.1 2.63 2.63 0 0 0 2.5 1 2.08 2.08 0 0 0 1.5-1.76c.03-.11-.12-.15-.19-.08z" fill="#bf847c"/><path d="m159.69 160.49s-.5 2.9-.55 4.27a.94.94 0 0 0 .79.25.05.05 0 0 0 .05 0 6.54 6.54 0 0 0 6.43-2.22.14.14 0 0 0 -.2-.2 9.85 9.85 0 0 1 -6 1.5c-.08-.38 1-4.94.81-5a12 12 0 0 0 -3.15.6c.88-6.07 2.72-12 3.5-18a.19.19 0 0 0 -.36-.1c-2.37 6-3.53 13-4.59 19.24-.16.81 2.71-.13 3.27-.34z" fill="#bf847c"/><path d="m153.74 144.37a18.77 18.77 0 0 0 2-.33 3.2 3.2 0 0 0 1.93-.72 1 1 0 0 0 0-1.24 2.53 2.53 0 0 0 -2.47-.69 3.72 3.72 0 0 0 -2.38 1.22 1.09 1.09 0 0 0 .92 1.76z" fill="#2f2962"/><path d="m174.56 146.26a18.78 18.78 0 0 1 -1.87-.66 3.2 3.2 0 0 1 -1.78-1 1 1 0 0 1 .16-1.23 2.53 2.53 0 0 1 2.55-.26 3.72 3.72 0 0 1 2.14 1.61 1.09 1.09 0 0 1 -1.2 1.54z" fill="#2f2962"/><path d="m195 156.92c-4.75.27-7.36-12.58-7.36-12.58s-31.68-5.51-30.85-25.77c0 0 18.6-13.4 35.54 1.33s6.99 36.77 2.67 37.02z" fill="#2f2962"/><path d="m189 144.43c-7.64-.51-15.16-2-21.49-6.55-6.63-4.8-9.37-11.37-10.61-19.17 0-.08-.12 0-.13 0-.88 7.23 4 14.76 9.48 19.08 6.34 5 14.74 7.26 22.75 7a.17.17 0 0 0 0-.36z" fill="#2f2962"/><path d="m202.47 162a1 1 0 0 1 0 .12c-1.19 2.83-2.92 5.33-4.73 6.22l-.24.11a4.84 4.84 0 0 1 -6.57-2.4l1.34-7.66s.16-.24.46-.64.36-.53.56-.78c.47-.61 1.09-1.38 1.79-2.15a15.76 15.76 0 0 1 3.31-2.87c1.35-.83 2.73-1.19 4-.57 2.39 1.18 1.88 6.28.08 10.62z" fill="#f5bfa9"/><path d="m201 155a.07.07 0 0 1 0 .13c-3.3 1.46-5 4.61-6.09 7.86 1-1.27 2.29-2 4-.86a.1.1 0 0 1 -.09.18 3 3 0 0 0 -3.25 1.14 14.4 14.4 0 0 0 -1.49 2.7c-.15.3-.69.16-.59-.19v-.08c-.17-4.2 2.96-10.26 7.51-10.88z" fill="#bf847c"/><path d="m187.62 144.34s5.27 29.15-5.3 40.92c0 0 11.4-6.41 11.6-29.18z" fill="#2f2962"/><path d="m203 160.69a26.23 26.23 0 0 1 -5.79 10.74c-3.64 4.38-8.85 6.45-14 8.19-.51.17-.66-.7-.13-.86a27.72 27.72 0 0 0 13.95-10s0 0 0 0c.2-.13.4-.28.59-.43 1.81-.88 3.54-3.38 4.73-6.22a1 1 0 0 0 0-.12c.33-.42.51-.87.65-1.3z" fill="#fff"/><path d="m198.37 151.88a16.62 16.62 0 0 0 -3.58 2.75 16 16 0 0 0 -1.94 2.05c-.21.24-.41.5-.6.75s-.49.61-.49.61c-1.45 1.95-2.67 3.89-3.22 4.47a.22.22 0 0 1 -.35-.25c1.58-2.71 4.54-9.87 8.65-10.47a4.44 4.44 0 0 1 1.53.09z" fill="#fff"/><path d="m190.5 159.07c.64-1.41-9.55 3.48-20.17 1.3-2.17-.45-8.23-2.89-11.6-2.89s-7.32 2.73-12 3.24c-1.59.17-.22 14 3.85 20 1.34 2 7 6 10.53 6.41 8.18.84 22.21-5 24.34-7.73 1.75-2.22-.98-6.96 5.05-20.33z" fill="#fff"/><g fill="#bec1df"><path d="m147.58 165.09a47.93 47.93 0 0 1 9.2-2.94c2.73-.54 5.2.46 7.79 1.38 6.94 2.47 13.93 2.19 20.92.2.08 0 .11.12 0 .15a27.7 27.7 0 0 1 -17.49 1.45c-3.18-.74-6.36-2.45-9.66-2.25-3.6.23-7.09 1.94-10.65 2.56a.29.29 0 0 1 -.11-.55z"/><path d="m152.75 181c2.21 1.06 4.38 2.62 6.67 3.37 2.74.89 6 0 8.7-.65 5.13-1.2 10.05-3.31 15.06-5 0 0 .06.06 0 .08a66.53 66.53 0 0 1 -17.34 6.08c-2 .35-4.21.87-6.21.27-2.41-.72-4.81-2.52-7-4 .01-.02.05-.15.12-.15z"/><path d="m149.33 169.73c5.22-1.54 10.08-1.16 15.37-.45a61.4 61.4 0 0 0 18-.34c.06 0 .08.09 0 .1a52.4 52.4 0 0 1 -16.1.84c-2.61-.27-5.19-.76-7.81-.94a30.42 30.42 0 0 0 -9.46 1.12c-.11.05-.19-.28 0-.33z"/><path d="m150.56 175a25.76 25.76 0 0 0 15.27 3.35c5.42-.5 10.63-2.54 15.81-4.33.07 0 .09.1 0 .12-10.39 4.39-20.91 7.35-31.25 1.17-.17-.11-.04-.41.17-.31z"/></g><path d="m257.08 319.56s7.41 91.2 8.47 92.47h32.26v-92.47z" fill="#434d91"/><path d="m341.7 319.56h-57.92s14 38.18 15.55 40.72 9.14 51.72 9.14 51.72h33.23s.06-41.48 0-44.14 3.36-38.6 0-48.3z" fill="#434d91"/><path d="m300 186c-7.37.31-13.17 4.24-16.67 7s-21.14 19.39-22.6 24.37-3.4 108.63-1.47 111.82 22.36 10.5 31.38 11 48.16-6.75 51.25-9.61 10.42-102.78 8.8-108.9-26.6-25.87-31.59-31.63c-2.22-2.52-15.95-4.15-19.1-4.05z" fill="#bec1df"/><path d="m285.12 207.72c-.07 1.42 1.56 7.91 2.27 8.71s6.34 1.2 7 .73 3.84-7.06 4-8.33-4.5-6.79-6.45-7.11-6.77 5.15-6.82 6z" fill="#2f2962"/><path d="m287.39 216.44s-9.13 66.92-9.66 71.46 9.78 31.6 11.52 32.21 11.46-27 12.07-30-6.29-70.76-6.85-73.16c-.14-.67-6.99-1.14-7.08-.51z" fill="#2f2962"/><path d="m275.85 390.93c-.94 2.73-25.23-4.56-25.72-7.88s8.12-80.31 8.13-86.35-.93-72.73 1.93-80.42c1.44-3.94 10.31-12.86 15.41-17.79 2.17-2.1 3.67-3.47 3.67-3.47-.84 3.24-4 46.83-3.19 76.49.25 9.48.42 24.86.5 41.47v.41c.15 35.18-.09 75.71-.73 77.54z" fill="#fff"/><path d="m264.06 239.52c-.2-3.06 10.38-15.52 10.38-15.52s-9.39 1.48-9.4-.57c0-1.78 8.55-20.54 10.57-24.95 2.17-2.1 5.21-4.51 5.21-4.51-.84 3.24-5.53 47.87-4.73 77.53.25 9.48.42 24.86.5 41.47-.43-9.44-12.33-70.43-12.53-73.45z" fill="#fff"/><path d="m264.26 238.62c3.07-5.12 10.81-14.9 10.77-14.86s-9 .35-9.62-.37c-.45-.51 7.57-18.44 10-23.28a.1.1 0 0 0 -.17-.1c-4.38 6.43-12 23.71-10.43 24.22s6.33.48 8.5.49c-3.8 3.9-9.86 13.42-10.08 14.09s3.67 23.56 5.71 34.55c2.2 11.86 4 25.4 6.79 37.14a.18.18 0 0 0 .34-.08c-1.44-11.79-9.47-58.77-11.81-71.8z" fill="#2f2962"/><path d="m354.69 383.3c-19.31 15-45.17 11.19-46.08 9.11-.54-1.24-2-39.51-2.53-77.23v-.5c-.32-25.67-.21-51 1-64.2a315.66 315.66 0 0 1 11.79-60.4 11.19 11.19 0 0 1 2.5 1.75c7.39 5.94 28.13 25 27.91 28.6-.27 4.22-1.29 59.71.36 83.86s7.75 76.9 5.05 79.01z" fill="#fff"/><path d="m344.25 336.19a1.22 1.22 0 0 0 -1.06-.37c-9 1.61-17.84 3.55-27 4.29a.07.07 0 0 0 0 .14c9.15.13 18.29-1.5 27.18-3.6q.84 3 1.43 6.06c-8.3 2.24-16.43 3-25 3.61a.06.06 0 0 0 0 .12c8.29.86 17.18-.66 25.1-3.08a65.84 65.84 0 0 1 1.14 12.25c0 2.24.47 7.45-1.11 9.27-1.91 2.21-6.4 3.24-9.13 3.77a27.29 27.29 0 0 1 -10.51 0c-2.09-.42-3.71-.76-4.95-3-.74-1.36-3.24-17.67-3.81-24.09 0-.18-.29-.2-.29 0 .1 7.44 1.23 19.2 3.13 24.33s10.57 4.56 14.85 4c3.48-.45 8.08-1.17 11-3.2 1.91-1.33 1.81-2.74 1.91-5.1a77.53 77.53 0 0 0 -2.88-25.4z" fill="#2f2962"/><path d="m334.62 254.87c-3.39-.29-17.43.51-21 .9-.21 0-.16.35 0 .36 3.6.11 19.39-.74 20-.49s.35 3.15 0 3.32c-.83.41-16.38.54-20.1.62-.63 0-.67 1 0 1q10.48-.25 20.94-.79a.5.5 0 0 0 .5-.47 20.82 20.82 0 0 0 -.34-4.45z" fill="#2f2962"/><path d="m316.4 221c-.16.37 9.92 10.13 10.48 11.55s-13.56 39.47-16.55 51-4.26 31.69-4.26 31.69v-.5c-.32-25.67-.21-51 1-64.2a391.84 391.84 0 0 1 10.88-61.54c.21 0 2 1.73 3.39 2.84.2.79 6.94 25.78 7 26.59s-11.79 2.15-11.94 2.57z" fill="#fff"/><path d="m321.68 192.6c-.06-.24-.23-.18-.18.06a223.36 223.36 0 0 0 6.32 25.76c-4 .68-11.6 2.23-11.74 2.4s3 4.3 4.75 6.06a59.72 59.72 0 0 0 5.83 5.77c-5.57 12.53-17.33 51.06-18.47 57.5a183.33 183.33 0 0 0 -2.17 20.3c0 .09.12.09.13 0 .88-7.15 1.66-14.31 3.16-21.36 1.35-6.35 13.83-43.67 18.25-56.25.12-.34-9.24-10.09-10.93-11.74 3.82-.59 12.17-1.89 12.06-2.25-2.47-8.7-4.83-17.47-7.01-26.25z" fill="#2f2962"/><path d="m332.32 290.56c-.07 1.73-.35 2.93-.64 3.08-.89.48-4.66 2.3-9.77 4.36-.91.37-1.87.75-2.87 1.13-2.79 1.06-13 6.27-24.36 11.75-15.22 7.32-32.68 15.12-37.68 14.29-8.79-1.5-21.11-12.08-22-18.15s17.55-78.22 19.9-83.12 5-9.07 7.53-11.55l-3.82 79.39a5.29 5.29 0 0 1 .81-.34c2.85-1 12.28-3.62 23.11-6.46 18.22-4.77 40.38-10.2 41.82-9.75a11.68 11.68 0 0 1 1.48.59c5.59 2.81 6.69 10.43 6.49 14.78z" fill="#fff"/><path d="m256.37 258a0 0 0 0 0 0 0" fill="none"/><path d="m321.91 298c-.91.37-1.87.75-2.87 1.13-2.79 1.06-13 6.27-24.36 11.75-2.58-1.51-5.15-3-7.73-4.54-6.23-3.62-12.63-7.05-18.71-10.88a15.89 15.89 0 0 1 -1.41-1l-1.07.05c-2 .07-6.17-.08-6.42-2.56a.74.74 0 0 1 0-.17.34.34 0 0 1 0-.13 1.79 1.79 0 0 1 0-.27c2.85-1 12.28-3.62 23.11-6.46a56.61 56.61 0 0 1 28.38 5.91 54.88 54.88 0 0 1 11.08 7.17z" fill="#bec1df"/><path d="m332.87 290.61c-.05.77-.15 1.57-.27 2.42a.73.73 0 0 1 -.44.59c-10.61 6.14-42.83 20.58-50.8 24.1-4.68 2.09-20.66 9.74-25.59 7.34-.1-.06-.12-.16 0-.14h.13c4.5.7 21.7-6.44 38.6-14.18 2.83-1.28 5.66-2.59 8.41-3.88a2.42 2.42 0 0 1 .27-.13c5.77-2.72 11.23-5.36 15.81-7.59h.06l2.66-1.3c6.16-3 10.15-5 10.15-5 .27-3.84.21-14.05-7.86-17.24-12.18 3.24-25.94 6.16-38.22 9.35l-1.28.33q-9.65 2.55-19.31 5.16a23.27 23.27 0 0 0 -5.67 2.18 15.26 15.26 0 0 0 -3.11 2.29c-2.26 2.13-4.43 4.33-6.78 6.36a.14.14 0 0 1 -.19-.2c2.56-3.11 5.24-6.64 8.63-9-.35-9.66-.54-19.36-.77-29a6.69 6.69 0 0 1 -.89-2.34 22.68 22.68 0 0 1 -.59-3.22.15.15 0 0 1 .3-.08c.24 1 .55 2 .88 3 .08.21.17.43.26.66-.11-4-.2-8.06-.33-12.1a0 0 0 0 1 .07 0c1.6 11 1.94 22.33 2 33.59v9a14.7 14.7 0 0 1 2.94-1.36c6.43-2.06 13.09-3.56 19.61-5.26 7.63-2 15.78-3.91 23.91-5.74l.54-.22c5.12-1.14 10.21-2.29 15.13-3.41l2.87-.65a7.89 7.89 0 0 1 2.14.87c2.78 1.46 7.4 5.45 6.73 14.8z" fill="#2f2962"/><path d="m279.32 280.9a26.58 26.58 0 0 0 -6 6.52 21.63 21.63 0 0 0 -3 5.83 9.52 9.52 0 0 1 -2.5-.23 4.72 4.72 0 0 1 -3.72-3l-4.79 1.37c-2-.82.51-3.89.51-3.89-.06-1.24 2.2-2.77 2.2-2.77.28-1.26 3.18-2.4 3.18-2.4s.91-1.2 4.25-1.83c2.12-.39 6.73.03 9.87.4z" fill="#fadad4"/><path d="m364.77 303.81c0 3.85-12.39 22.57-20.62 21.51-13.5-1.71-70.65-29.67-73.39-30.3-.57-.14-.67-.79-.43-1.77a21.63 21.63 0 0 1 3-5.83 26.58 26.58 0 0 1 6-6.52 6 6 0 0 1 1.65-.84c3.65-1.12 37.7 4.84 51.93 7.57 3.7.72 6.05 1.21 6.2 1.3s.45-5 .7-12.57c.77-22.11 1.69-66 1.69-66 4.27 4.37 12.9 12.82 14.49 15.8s8.75 73.84 8.78 77.65z" fill="#fff"/><path d="m348.71 293.77a43.21 43.21 0 0 0 -8.25-4.72c2-.49 5 .51 6.56.67.31 0 .34-.41.08-.51a16.4 16.4 0 0 0 -5.41-1 3.49 3.49 0 0 0 -1.67.34 208.5 208.5 0 0 0 -.47-37.64c0-.22-.38-.17-.38 0q0 5 0 10c-.34-1.39-.74-2.77-1.09-4.08a.07.07 0 0 0 -.13 0c.59 3 .59 6.13 1.24 9.09 0 7.54.07 15.08 0 22.62-7.17-2.61-48.57-9.8-58.11-8.7a3.76 3.76 0 0 0 -1.72.8c-.23.17-.2.4-.07.35a5 5 0 0 1 2.15-.72c10.14-.06 50.69 6.89 57.85 9.53a.37.37 0 0 0 .26.1 67 67 0 0 1 9.1 4.16c.43.24.44-.06.06-.29z" fill="#2f2962"/><path d="m351 322.69a13.24 13.24 0 0 1 -5.32 2.31c-2.83.47-10.54-2.54-15.24-4.29-7.2-2.67-14.16-5.93-21.11-9.2-6.28-3-12.57-5.89-18.93-8.67q-5-2.18-10-4.26c-2-.85-8.58-3.16-9.77-4-.37-.25-.13-1-.16-1.45 0-.14-.23-.21-.27 0a7.84 7.84 0 0 0 -.3 1.79.29.29 0 0 0 .2.28c15.63 6.5 30.9 13.7 46.27 20.8a166.53 166.53 0 0 0 20.44 8.12c2.73.84 6.07 2.13 9.07 1.8a7.74 7.74 0 0 0 5.4-3c.12-.2-.1-.34-.28-.23z" fill="#2f2962"/><path d="m351.07 287.13s.63 1.44.16 2.09a10.07 10.07 0 0 1 -2.09 1.63s-8.44-1.53-10-1.92c-.15-.09-2.5-.58-6.2-1.3-.38-7.24-4.29-10.52-6.72-11.85 1.8 0 9.15.17 13.62.57a17.05 17.05 0 0 1 3.09.46c2.62.81 9 8 8.95 8.89a2.29 2.29 0 0 1 -.81 1.43z" fill="#fadad4"/><path d="m319.26 192.67c-1.51-8.78-15.83-9.13-22.54-8.71-8.54.54-15.59 2.77-17.68 11.64s-1.81 18.37-1.25 27.32a1.3 1.3 0 0 1 -2.59.2c-.64-10.31-2.85-29.65 5.94-37.12s38.16-8.42 40.72 6.46c.28 1.65-2.31 1.84-2.59.2z" fill="#2f2962"/></g><circle cx="276.88" cy="227.92" fill="#768ff6" r="5.98" transform="matrix(.99697187 -.0777631 .0777631 .99697187 -110.38 -75.74)"/><circle cx="276.88" cy="227.92" fill="#e4eff8" r="3.6" transform="matrix(.99697187 -.0777631 .0777631 .99697187 -110.38 -75.73)"/><path d="m317.06 221.86c-.5 25.82 1.93 31.51 4.63 33.81a16.6 16.6 0 0 0 6.81 3.21l.34-1.78-.17.89.17-.89a15 15 0 0 1 -6-2.81c-1.95-1.66-4.48-6.83-4-32.39z" fill="#bec1df" transform="translate(-93.49 -97.96)"/><rect fill="#768ff6" height="6.28" rx="1.11" transform="matrix(.2637047 -.96460346 .96460346 .2637047 -100.19 409.36)" width="3.86" x="327.06" y="254.91"/><path d="m333 218.62c9.26 17.12 12.86 26.85 11.32 30.62a14.89 14.89 0 0 1 -4 5.24l1.12 1.42a16.6 16.6 0 0 0 4.58-6c1.83-4.49-1.47-13.81-11.4-32.16z" fill="#bec1df" transform="translate(-93.49 -97.96)"/><rect fill="#768ff6" height="6.28" rx="1.11" transform="matrix(-.67700443 -.73597894 .73597894 -.67700443 289.78 581.02)" width="3.86" x="338.71" y="252.25"/><path d="m335.06 216.84a104.4 104.4 0 0 0 -6.06-11.19 10.88 10.88 0 0 0 -4.58-3.47c-.36.05-1-3.07-1.38-5.63-.38-2.26-.77-4.9-1.48-5.48a1.79 1.79 0 0 0 -2.45.46c-.45.8.15 3.4.61 5.65.53 2.54 1.1 5.66.75 5.74a11.86 11.86 0 0 0 -2.79 4.91 86.1 86.1 0 0 0 -1.3 13c.07 2.74 1 2.85 1.81 2.93 1.14.1 1.64-.78 1.77-3.86.21-4.88 0-13 3.18-13.7 3.23-.45 6.48 7.37 8.59 11.66 1.32 2.68 2 2.81 3 2.3.73-.41 1.44-.92.33-3.32z" fill="#768ff6" transform="translate(-93.49 -97.96)"/><path d="m307.61 177.95c2.39 1.05 10.74 12.05 10.39 13.65s.73 21.67-17.63 29.49l-9-16.94-9 13.89s-5.19-11.07-5-13.84 2.32-16.52 13-23.37c8.08-5.14 12.2-5.03 17.24-2.88z" fill="#bec1df" transform="translate(-93.49 -97.96)"/><path d="m317.76 191.39c-.94 11-5.7 25.28-17.13 29.06-3.15-5.39-6.34-10.67-9-16.31a.29.29 0 0 0 -.46-.07c-.08 0-6.43 9.2-8.86 13.69a62 62 0 0 1 -3.38-9.68c-1.39-4.51-.79-8 .61-12.44 0-.11-.14-.19-.19-.08-1.63 3.62-2.71 7.22-1.65 11.14a54.67 54.67 0 0 0 4.17 11.66.26.26 0 0 0 .28.14.2.2 0 0 0 .24-.06c3.15-4.31 5.72-9 8.88-13.33 2.71 5.62 5.77 11 8.83 16a.77.77 0 0 0 .72.1c11.88-3.75 17.42-18.29 17.11-29.83a.07.07 0 0 0 -.17.01z" fill="#2f2962" transform="translate(-93.49 -97.96)"/><path d="m281.38 165.15 1.35 26 .19 3.65s1.34 7.52 9.21 8.91 19.75-9.11 20.69-11.07c.48-1 .87-10.32 1.15-19.17.26-8.45.42-16.49.42-16.49l-3.68.91z" fill="#fadad4" transform="translate(-93.49 -97.96)"/><path d="m281.38 165.15 1.35 26a50.8 50.8 0 0 0 23.79-10.37 48.83 48.83 0 0 0 7.45-7.31c.26-8.45.42-16.49.42-16.49l-3.68.91z" fill="#dea89e" transform="translate(-93.49 -97.96)"/><path d="m319.27 120.71c5.43 12.26.64 42.94-8.68 53.36-6.38 7.13-20.28 9.35-30.64 5.15a19.85 19.85 0 0 1 -10.88-9.85c-7-15.06-.65-51.17 6.9-56.85 13.32-10.04 36.66-6.8 43.3 8.19z" fill="#fadad4" transform="translate(-93.49 -97.96)"/><path d="m294.94 148.35c0-.07.14.1.13.18-.21 1.91-.14 4.14 1.54 4.91.05 0 0 .12 0 .11-2.11-.46-2.18-3.42-1.67-5.2z" fill="#2f2962" transform="translate(-93.49 -97.96)"/><path d="m296.81 146.49c3.1 0 2.85 6.21 0 6.2s-2.6-6.21 0-6.2z" fill="#2f2962" transform="translate(-93.49 -97.96)"/><path d="m279.93 147.26c0-.07-.15.08-.15.16 0 1.92-.36 4.12-2.13 4.69-.05 0-.05.11 0 .11 2.14-.22 2.57-3.14 2.28-4.96z" fill="#2f2962" transform="translate(-93.49 -97.96)"/><path d="m278.3 145.18c-3.08-.36-3.58 5.82-.72 6.16s3.3-5.85.72-6.16z" fill="#2f2962" transform="translate(-93.49 -97.96)"/><path d="m292.27 165.68a2.92 2.92 0 0 1 -1.66 1.06 5.08 5.08 0 0 1 -2-.57.07.07 0 0 0 -.09.1 2.59 2.59 0 0 0 2.4 1.14 2 2 0 0 0 1.58-1.64c-.02-.11-.16-.16-.23-.09z" fill="#dea89e" transform="translate(-93.49 -97.96)"/><path d="m299.38 143.76a24.19 24.19 0 0 1 -2.37-.94 4.12 4.12 0 0 1 -2.23-1.42 1.31 1.31 0 0 1 .28-1.58 3.25 3.25 0 0 1 3.29-.2 4.78 4.78 0 0 1 2.67 2.18 1.4 1.4 0 0 1 -1.64 1.96z" fill="#2f2962" transform="translate(-93.49 -97.96)"/><path d="m276 142a24.13 24.13 0 0 0 2.49-.54 4.12 4.12 0 0 0 2.44-1 1.31 1.31 0 0 0 0-1.6 3.25 3.25 0 0 0 -3.21-.74 4.78 4.78 0 0 0 -3 1.71 1.4 1.4 0 0 0 1.28 2.17z" fill="#2f2962" transform="translate(-93.49 -97.96)"/><path d="m285.51 161.27s1.56 4 4.62 3.26c2.31-.53 1.19-5.19 1.19-5.19s-3 2.21-5.81 1.93z" fill="#fff" transform="translate(-93.49 -97.96)"/><path d="m291.5 159.51a6.54 6.54 0 0 1 -4.48 2.73 8.21 8.21 0 0 1 -2.36 0 2.33 2.33 0 0 1 -.45-.07l-.42-.08a.48.48 0 0 1 -.37-.45.93.93 0 0 1 0-.2v-.17c0-1.48.26-3.72.26-3.72-.55.25-3.36 1.37-3.28.6.64-6.38 1.36-13.47 3.35-19.69a.18.18 0 0 1 .35.06c-.38 6.16-1.83 12.2-2.31 18.38a11.45 11.45 0 0 1 3.13-.81c.21.07-.53 4.33-.49 5a.25.25 0 0 0 0 .07c2.47.42 4.38-.25 6.86-1.82.18-.11.33.02.21.17z" fill="#dea89e" transform="translate(-93.49 -97.96)"/><path d="m274.61 121.09c-6.54 10.39-7.5 27.19-8.84 22.42-4.44-15.68 3.42-24.76 3.42-24.76s6.21 1.09 5.42 2.34z" fill="#2f2962" transform="translate(-93.49 -97.96)"/><path d="m317.28 153.5s-11.87-2.36-8.4-27.59a41.64 41.64 0 0 1 -21.82 2.86c-13-1.62-20-7.12-24.06-16-1.34-2.91 5.69 1.19 8.77-.13 5.5-2.36 10.87-9.53 25.67-9.2s18.72 10.29 18.72 10.29 8 2.45 11.14 9.37-2.38 30.39-10.02 30.4z" fill="#2f2962" transform="translate(-93.49 -97.96)"/><path d="m313.11 152.64s6-10.2 10.62-8.11.54 16.51-4.48 18.82a5.26 5.26 0 0 1 -7.24-2.29z" fill="#fadad4" transform="translate(-93.49 -97.96)"/><path d="m322.48 148.64a.07.07 0 0 1 0 .14c-3.51 1.74-5.16 5.24-6.23 8.82 1-1.42 2.39-2.26 4.28-1.12a.11.11 0 0 1 -.08.2 3.24 3.24 0 0 0 -3.47 1.39 15.63 15.63 0 0 0 -1.49 3c-.14.34-.74.21-.65-.18v-.09c-.38-4.6 2.72-11.33 7.64-12.16z" fill="#dea89e" transform="translate(-93.49 -97.96)"/><path d="m306.08 176.23c5.22-2.33 10.48-5 13.88-10a27.69 27.69 0 0 0 5-11.87 21.23 21.23 0 0 1 -2 4.89 15 15 0 0 1 -3.44 4.2s0 0 0 0a29.25 29.25 0 0 1 -13.68 11.85c-.52.26-.28 1.16.24.93z" fill="#fff" transform="translate(-93.49 -97.96)"/><path d="m311.56 156.15c.93-1.16 3.82-7.15 6.42-9.39a16.36 16.36 0 0 1 1.24-1.13 6.11 6.11 0 0 1 2.4-1.28 3.89 3.89 0 0 0 -2.28-.2c-4 .76-6.69 8.74-8.15 11.76-.08.18.21.45.37.24z" fill="#fff" transform="translate(-93.49 -97.96)"/><path d="m312.43 154.8c.67-1.49-10.08 3.68-21.28 1.37-2.29-.47-8.68-3-12.24-3s-7.72 2.88-12.64 3.41c-1.68.18-.23 14.73 4.07 21.1 1.41 2.09 7.43 6.38 11.11 6.76 8.64.89 23.43-5.28 25.69-8.16 1.8-2.36-1.08-7.37 5.29-21.48z" fill="#fff" transform="translate(-93.49 -97.96)"/><path d="m267.45 159.71a50.57 50.57 0 0 1 9.71-3.11c2.88-.57 5.49.49 8.22 1.46 7.32 2.6 14.7 2.31 22.08.21.09 0 .12.12 0 .16a29.24 29.24 0 0 1 -18.46 1.57c-3.36-.78-6.72-2.59-10.19-2.37-3.79.24-7.49 2-11.24 2.7a.3.3 0 0 1 -.12-.62z" fill="#bec1df" transform="translate(-93.49 -97.96)"/><path d="m272.9 176.54c2.33 1.12 4.62 2.77 7 3.56 2.89.94 6.32 0 9.18-.68 5.42-1.27 10.61-3.49 15.9-5.32 0 0 .06.06 0 .08a70.21 70.21 0 0 1 -18.3 6.42c-2.11.37-4.45.91-6.55.28-2.54-.76-5.08-2.66-7.34-4.18-.01-.05.04-.2.11-.16z" fill="#bec1df" transform="translate(-93.49 -97.96)"/><path d="m269.29 164.61c5.51-1.62 10.63-1.22 16.22-.47a64.8 64.8 0 0 0 19-.36c.06 0 .09.1 0 .11a55.3 55.3 0 0 1 -17 .88c-2.75-.28-5.48-.8-8.24-1a32.1 32.1 0 0 0 -10 1.18c-.09.05-.17-.28.02-.34z" fill="#bec1df" transform="translate(-93.49 -97.96)"/><path d="m270.59 170.19a27.19 27.19 0 0 0 16.11 3.53c5.72-.53 11.22-2.68 16.69-4.57.07 0 .1.1 0 .13-11 4.63-22.07 7.75-33 1.24-.16-.13-.02-.45.2-.33z" fill="#bec1df" transform="translate(-93.49 -97.96)"/><path d="m530.65 229.2-5.47 38.86-.3 2.12-6.11 43.41h-45.73l.65-34.31.04-2.19.91-47.89z" fill="#768ff6"/><g transform="translate(-93.49 -97.96)"><path d="m612.27 327.17s-.49 9.94-1.33 18c-.05.5-.11 1-.16 1.48a44.5 44.5 0 0 1 -1.27 7.33c-1.13 3.49-11.84 13.5-19.5 20.45-.82.75-1.61 1.45-2.35 2.12-2.83 2.54-4.93 4.38-5.39 4.87a17 17 0 0 0 -1.7 3.78.4.4 0 0 1 -.05.13c-3.1 8.23-8.53 26.25-8.53 26.25h-54.06s-2.18-36.71-1.49-48a65 65 0 0 1 1.12-8 .66.66 0 0 1 0-.16c2.28-12.2 7.12-28.16 7.12-28.16h87.56z" fill="#768ff6"/><path d="m624.15 327.17-5.48 38.83-.3 2.12a154.75 154.75 0 0 1 -30.71 8.37 86.42 86.42 0 0 1 -20.48.73c-2.06-.18-4.11-.45-6.17-.8-16.39-2.86-30.58-11-43.46-21a.66.66 0 0 1 0-.16c2.28-12.2 7.12-28.16 7.12-28.16h99.44z" fill="#6181e2"/><path d="m605.33 362.63c-3.61 3.12-7.11 6.34-10.88 9.28-3.56 2.77-11.69 7.74-11.81 8-4.27 10.28-7.51 21.13-11.17 31.63a.25.25 0 0 0 .45.18c5-9.7 9.57-20.48 11.6-31.17 4-1.61 7.61-4.48 11-7a64.23 64.23 0 0 0 11.2-10.55.27.27 0 0 0 -.39-.37z" fill="#2f2962"/><path d="m642.63 250.49c-.17.69-1.46.55-3.49.17a67.38 67.38 0 0 0 -11-1.54s0 0 0 0a26.71 26.71 0 0 0 -8.41 1l-.26.05c-7.41.78-18.75-54.68-18.75-54.68 5 2.39 13.91 5.52 18 10.46s25.23 39.16 23.91 44.54z" fill="#768ff6"/><path d="m566.32 177.23-11.7 1.15s2.55 11.87-2.19 15.82-19.4 15-21.71 18.62 6.1 77.07 2.14 89.3-8.24 24-5.27 28.66 32 14.88 48.78 14.88 37.91-8.24 42.52-20.44 7.91-63.29 4.29-83.72-13.68-41.86-19-43.51-18.29-1.41-19.86-16.65c-1.32-13.51-18-4.11-18-4.11z" fill="#fadad4"/><path d="m627.8 280.09c0 2-.08 3.93-.13 5.87-1 42.13-4.13 69.18-5.8 71.49s-49.88 14.5-65.7 11.64-38-23.28-39.66-26.15c-1.41-2.44 9.73-22.11 12.89-41.77a56.25 56.25 0 0 0 .83-9.43c-.05-4.58-.26-11.1-.54-18.45-.92-23.64-2.54-55.77-1.87-58.84.87-4 17.62-17.36 18.46-17.21 1.52.3 34.06 21.32 35.81 20.44s10.34-24.5 11.1-24.62 12.63 3.74 15.16 6.82c1.94 2.35 12.83 21.86 17.43 51a165.36 165.36 0 0 1 2.02 29.21z" fill="#768ff6"/><path d="m596.8 199.14c-2 6.34-11.67 24.59-13 25.54-.23.17-20.14-5.4-41.13-22.9 11.51 11 25.4 19 41.27 24 .13 0 11.11-16.89 13.09-26.56a.12.12 0 0 0 -.23-.08z" fill="#2f2962"/><path d="m627.8 280.09c0 2-.08 3.93-.13 5.87l-1 .08q-9.35.79-18.74 1.32c-3.18.17-6.38.24-9.56.49a19.58 19.58 0 0 0 -9 3.06c-5.17 3-10.4 5.95-15.76 8.65-9.06 4.55-18.74 8.69-29.1 7.42a33.41 33.41 0 0 1 -15.12-5.8 56.25 56.25 0 0 0 .83-9.43c-.05-4.58-.26-11.1-.54-18.45 8.69-6.78 20.2-9.61 30.68-12.06 11.59-2.7 23.32-5 35-7 9.88-1.69 20.24-3.44 30.36-3.36a165.36 165.36 0 0 1 2.08 29.21z" fill="#6181e2"/><path d="m622.32 236.32a48.27 48.27 0 0 0 -1.65-8.73.09.09 0 0 0 -.18 0c.4 1.95.62 3.92.85 5.9-1.13-3.05-2.36-6.07-3.69-9-.08-.17-.33 0-.26.14 3.61 9.11 5.95 18.55 8.29 28a.28.28 0 0 0 .55-.13 84.43 84.43 0 0 0 -3.91-16.18z" fill="#2f2962"/><path d="m637.91 277.24c-4.63 2.43-25.34 2.51-45.41 1.9-16.19-.49-32-1.41-38.54-1.9-14.73-1.11 18.89-16 31.64-18.68s26.87-5.27 27.53-5.27a52.92 52.92 0 0 0 6.32-3.09l.28-.05c7.41-2.24 15.08-.29 19.41.51 2.11 9.34 4.31 23.65-1.23 26.58z" fill="#fadad4"/><path d="m628.14 249.12c-1.75 1.83-4.58 3.26-6.45 4.93-5.62 5-19.83 21.21-29.19 25.09-16.19-.49-32-1.41-38.54-1.9-14.73-1.11 18.89-16 31.64-18.68s26.87-5.27 27.53-5.27a52.92 52.92 0 0 0 6.32-3.09l.26-.05a26.71 26.71 0 0 1 8.43-1.03z" fill="#dea89e"/><path d="m621.69 249.66c-6.32 2.64-13 6.7-23.56 17.47s-41.76 34.06-53.62 31.64c-5.41-1.11-10.36-4.85-14.41-9.11a68.41 68.41 0 0 1 -10-13.74l34.07-14.5 1.21 1.23.51.53c3.3-3.07 38.7-17.36 49.69-19.55s22.42 3.37 16.11 6.03z" fill="#fadad4"/><path d="m566.73 257.4a44 44 0 0 0 -13.19 7.74c-4 3.65-6.33 8.69-8.91 13.36a.18.18 0 0 0 .3.2c2.95-4.31 5.6-9.05 9.48-12.6s8.17-5.77 12.46-8.43a.14.14 0 0 0 -.14-.27z" fill="#dea89e"/><path d="m555.4 262.64c-7.13 5.06-18.66 14.83-25.3 27a68.41 68.41 0 0 1 -10-13.74l34.07-14.5z" fill="#dea89e"/><path d="m536.76 204.55c-4.68 4.33-18.56 16.79-21.08 26-2.7 9.81-2.37 44.64.71 54.75.8 2.64 15.75-8.08 22.25-12.28s16.24-8.79 18-10.3-19.88-58.17-19.88-58.17z" fill="#768ff6"/><path d="m553.18 248.77c-.19-2.35-.73-4.71-1-7 0-.21-.34-.22-.33 0 .08 1.34.11 2.72.2 4.1-.89-2.23-1.82-4.44-2.74-6.64-.06-.15-.31-.09-.25.07 2.86 7.57 4.42 15.57 7 23.23a.42.42 0 0 0 .8-.22 63.31 63.31 0 0 0 -3.68-13.54z" fill="#2f2962"/><path d="m547.35 239.35c-5.66-11.21-18.25-16.43-29.74-12.21a.07.07 0 0 0 0 .14 24.34 24.34 0 0 1 29.47 12.22c.17.25.4.1.27-.15z" fill="#2f2962"/><path d="m562.3 259.37c.63-.3-13.83-4.18-19.39-2.48s-16.73 18-15.23 20.77 12-6.1 13.79-6.49c.87-.19 8.16-4.3 13.1-7.17a85.37 85.37 0 0 1 7.73-4.63z" fill="#fadad4"/><path d="m586 191.06s-16.07 11.6-8.31 9.74c50.17-12 29.45-19.42-21.66-9-.77.16-1.17-5.58-2-11.51-.32-2.38-.66-4.94-1-7.46-1.07-8.39-2-16.38-2-16.38l3.75.56 29.88 4.41.89 20.05.25 5.93z" fill="#fadad4"/><path d="m585.59 181.44c-1 .38-2 .72-3.07 1-9.42 2.56-20 2.51-28.47-2.18-.32-2.38-.66-4.94-1-7.46-1.07-8.39-2-16.38-2-16.38l3.75.56 29.88 4.41z" fill="#dea89e"/><path d="m587.8 116.16c5.93 12 2.39 42.88-6.5 53.67-6.09 7.39-19.88 10.17-30.4 6.39a19.85 19.85 0 0 1 -11.28-9.4c-7.66-14.76-2.74-51.1 4.57-57.09 12.92-10.57 36.36-8.28 43.61 6.43z" fill="#fadad4"/><g fill="#2f2962"><path d="m564.85 142c0-.07.15.1.14.18-.14 1.92 0 4.14 1.74 4.84.05 0 0 .12 0 .11-2.12-.38-2.31-3.33-1.88-5.13z"/><path d="m566.65 140.07c3.1-.11 3.1 6.09.23 6.2s-2.88-6.11-.23-6.2z"/><path d="m549.81 141.53c0-.07-.15.09-.15.17.06 1.92-.19 4.13-1.93 4.77-.05 0 0 .12 0 .11 2.13-.3 2.44-3.24 2.08-5.05z"/><path d="m548.09 139.52c-3.09-.24-3.34 6-.47 6.18s3.06-5.98.47-6.18z"/></g><path d="m561.89 158.09a2.92 2.92 0 0 1 -1.62 1.13 5.08 5.08 0 0 1 -2.07-.48.07.07 0 0 0 -.08.1 2.59 2.59 0 0 0 2.44 1 2 2 0 0 0 1.51-1.7c.03-.07-.07-.14-.18-.05z" fill="#dea89e"/><path d="m569.1 137.23a24.14 24.14 0 0 1 -2.4-.85 4.12 4.12 0 0 1 -2.29-1.33 1.31 1.31 0 0 1 .21-1.59 3.25 3.25 0 0 1 3.28-.33 4.78 4.78 0 0 1 2.75 2.07 1.4 1.4 0 0 1 -1.55 2.03z" fill="#2f2962"/><path d="m545.69 136.39a24.12 24.12 0 0 0 2.47-.64 4.12 4.12 0 0 0 2.39-1.13 1.31 1.31 0 0 0 -.08-1.6 3.25 3.25 0 0 0 -3.24-.61 4.78 4.78 0 0 0 -2.92 1.83 1.4 1.4 0 0 0 1.38 2.15z" fill="#2f2962"/><path d="m561.86 153.24a6.54 6.54 0 0 1 -4.37 2.91 8.21 8.21 0 0 1 -2.35.11 2.33 2.33 0 0 1 -.45-.05l-.42-.06a.48.48 0 0 1 -.39-.43.93.93 0 0 1 0-.2v-.17c0-1.48.1-3.73.1-3.73-.54.27-3.3 1.51-3.25.74.38-6.4.81-13.52 2.54-19.81a.18.18 0 0 1 .35 0c-.13 6.17-1.33 12.27-1.56 18.46a11.45 11.45 0 0 1 3.09-.94c.21.06-.36 4.34-.29 5a.24.24 0 0 0 0 .07c2.49.32 4.36-.43 6.78-2.1.19-.04.36.05.22.2z" fill="#dea89e"/><path d="m586.06 147.82c-4.69 0-2.78-15-4.22-21.06-1.27-5.37-7.63-9.86-13.89-6.92-3.84 1.8-9.7 4.31-15.15 2.73s-6.42-7.66-9.51-7c-2.83.65-5.18 8.1-5.18 8.1s-.75-16.43 13.82-23.24c12.91-6 26.62.53 29.44 2.11s8.36 4.56 11.94 10.09c3.87 6.03.14 35.19-7.25 35.19z" fill="#2f2962"/><path d="m584 148.27s5.63-10.44 10.28-8.54 1.21 16.48-3.71 19a5.26 5.26 0 0 1 -7.33-2z" fill="#fadad4"/><path d="m593.22 143.88a.07.07 0 0 1 0 .13c-3.43 1.88-4.94 5.44-5.87 9.06.92-1.46 2.29-2.36 4.23-1.29a.11.11 0 0 1 -.08.2 3.24 3.24 0 0 0 -3.41 1.53 15.63 15.63 0 0 0 -1.36 3.06c-.13.34-.73.24-.65-.15v-.09c-.56-4.56 2.26-11.41 7.14-12.45z" fill="#dea89e"/><path d="m576.63 171.57c5.22-2.33 10.48-5 13.88-10a27.69 27.69 0 0 0 5-11.87 21.22 21.22 0 0 1 -2 4.89 15 15 0 0 1 -3.44 4.2s0 0 0 0a29.25 29.25 0 0 1 -13.68 11.85c-.51.26-.28 1.16.24.93z" fill="#fff"/><path d="m582.11 151.49c.93-1.16 3.82-7.15 6.42-9.39a16.35 16.35 0 0 1 1.24-1.13 6.11 6.11 0 0 1 2.4-1.28 3.89 3.89 0 0 0 -2.28-.2c-4 .76-6.69 8.74-8.15 11.76-.08.18.21.45.37.24z" fill="#fff"/><path d="m583 150.14c.67-1.49-10.08 3.68-21.28 1.37-2.29-.47-8.68-3-12.24-3s-7.72 2.88-12.64 3.41c-1.68.18-.23 14.73 4.07 21.1 1.41 2.09 7.43 6.38 11.11 6.76 8.64.89 23.43-5.28 25.69-8.16 1.78-2.36-1.1-7.37 5.29-21.48z" fill="#fff"/><path d="m538 155.05a50.57 50.57 0 0 1 9.71-3.11c2.88-.57 5.49.49 8.22 1.46 7.32 2.6 14.7 2.31 22.08.21.09 0 .12.12 0 .16a29.24 29.24 0 0 1 -18.47 1.53c-3.36-.78-6.72-2.59-10.19-2.37-3.79.24-7.49 2-11.24 2.7a.3.3 0 0 1 -.11-.58z" fill="#bec1df"/><path d="m543.46 171.88c2.33 1.12 4.62 2.77 7 3.56 2.89.94 6.32 0 9.18-.68 5.42-1.27 10.61-3.49 15.9-5.32 0 0 .06.06 0 .08a70.21 70.21 0 0 1 -18.3 6.42c-2.11.37-4.45.91-6.55.28-2.54-.76-5.08-2.66-7.34-4.18-.01-.04.03-.2.11-.16z" fill="#bec1df"/><path d="m539.84 160c5.51-1.62 10.63-1.22 16.22-.47a64.8 64.8 0 0 0 19-.36c.06 0 .09.1 0 .11a55.3 55.3 0 0 1 -17 .88c-2.75-.28-5.48-.8-8.24-1a32.1 32.1 0 0 0 -10 1.18c-.09.01-.17-.34.02-.34z" fill="#bec1df"/><path d="m541.14 165.53a27.19 27.19 0 0 0 16.11 3.53c5.72-.53 11.22-2.68 16.69-4.57.07 0 .1.1 0 .13-11 4.63-22.07 7.75-33 1.24-.16-.13-.02-.45.2-.33z" fill="#bec1df"/><path d="m450.78 204.56c6.15 5 13.93 14.83 15.81 17.36s11.24 59.43 12.84 63.08 23 33.41 21.92 35.24-11.77 13-16.93 12.6-24.07-34-27.72-38.23-5.92-90.05-5.92-90.05z" fill="#fff"/><path d="m426.62 190.59c-12.35-.43-31 22.45-33.54 32.16s12 47.22 10.92 58-5 21-2.44 25.36 28.82 12.63 38.82 11.86 18.6-14.55 20.92-17.58-1.06-29.74-.51-31.44 9.4-8.54 8-17.7-12.48-37.76-15.54-41.85-14.62-18.4-26.63-18.81z" fill="#bec1df"/><path d="m446 265c-4.5 1.52-8.95 4-13.65 4.79-5.65.93-11.26-1.53-16.2-4a.13.13 0 0 0 -.14.21c4.41 2.91 9.22 5.62 14.69 5.35s10.88-3.37 15.56-5.68a.36.36 0 0 0 -.26-.67z" fill="#2f2962"/><path d="m455.21 266.8a30.69 30.69 0 0 0 -13.35 2.36.2.2 0 0 0 .14.37 51.78 51.78 0 0 1 13.19-2 .35.35 0 0 0 .02-.73z" fill="#2f2962"/><path d="m403 287.6s28.86 9.89 39.24 8.91 19.71-8.27 19.71-8.27 7.93 31.18 9.76 42.31 5.94 63.34 5.87 65.18-13.88 17-37.12 16.18-57.55-12.44-59.67-15.1 11-71.26 14.34-83.7 7.87-25.51 7.87-25.51z" fill="#2f2962"/><path d="m430.49 415.64c.2 4.44-27.19-.44-36.45-3.71s-17.13-10-18-12.69 15.48-72.11 16.47-79.2 8.65-31.27 9.17-35.69-12.73-51.84-15.09-54.87c-2-2.53 15.07-23.25 23.61-30.9a13.79 13.79 0 0 1 3.85-2.78c.45-.15 1.06 1 1.81 3.09 3.82 10.75 10.94 46.75 14.16 65.26 1.52 8.71 1.87 33.39 1.78 60.36-.17 41.49-1.42 88.49-1.31 91.13z" fill="#fff"/><path d="m415.32 320.68c-2.92 5-4.88 10.05-9 14.26a62.55 62.55 0 0 1 -12.62 10.29.12.12 0 0 0 .09.22c5.41-1.37 9.76-5.56 13.54-9.47a38.1 38.1 0 0 0 8.6-15.06.31.31 0 0 0 -.61-.24z" fill="#2f2962"/><path d="m417.49 327.67c-3.54 9.27-10.06 15.29-18.26 20.59a.06.06 0 0 0 .06.11c8-4.56 16.14-11.25 18.54-20.6a.18.18 0 0 0 -.34-.1z" fill="#2f2962"/><path d="m440 196c-1.46-.89 13.39 44.9 11.84 75.62s-2.47 142.7.65 145 24-12 27.67-17-4.71-73.84-8.27-84.79-6.88-20.75-7.76-23.74-3-20.89-2.47-21.85 7.51-7.5 8.66-15.95-17.11-44.89-18.32-47.29-11-9.41-12-10z" fill="#fff"/><path d="m466.23 297.35c-2.23-8.07-3.75-22.35-4.11-27.35 4.38-4.95 9.37-12.1 8.73-19.07-.35-3.81-2-7.73-3.4-11.33a29 29 0 0 0 -2.57-8.86.09.09 0 0 0 -.16.06 43.75 43.75 0 0 1 1.35 5.34 95.71 95.71 0 0 0 -4.61-9.67.1.1 0 0 0 -.18.1c2.93 6.82 6 13.73 7.89 20.91 2.19 8.12-2.49 15.86-7.74 21.79-.21.24 0 16.23 3.22 26.38 3.05 9.63 6.37 19.17 9.27 28.85a.13.13 0 0 0 .26-.06c-2.09-9.19-5.43-18.02-7.95-27.09z" fill="#2f2962"/><path d="m431.78 324.52c-1.46-.36-2.5-34.47-4.23-41.33s-13.25-33.41-13.67-35.41 8.38-14.6 7.9-15-11.49 4.77-12.63 3.37c-1-1.25 1.56-31.42 2.55-37.7.11-.68 2.2-4.62 2.82-3.35 7.87 15.84 12.25 50.52 15.47 69 1.52 8.77 1.88 33.45 1.79 60.42z" fill="#fff"/><path d="m429.34 301.47c-.47-6-.23-12.22-1.6-18.15-2-8.85-13.47-34.57-13.41-34.71 1.3-3 6.49-13.23 7.42-15.48.13-.31.27-.62-.4-.39-1.93.66-10.5 3.92-11.57 3.42-.84-.4 1.06-35.94 3-39.61.1-.2-.25-.26-.35-.06-2.83 5.88-4.67 37.85-3.3 40.48a.55.55 0 0 0 .6.27 53.68 53.68 0 0 0 11.22-3.8c-1.58 2-7.91 14.79-7.83 15 4.33 11.62 10.87 23.21 13.67 35.76 1.46 6.52 1.38 13.39 2 20 .58 6 1.36 12.08 2.47 18.05 0 .2.33.12.3-.07-.83-6.87-1.68-13.77-2.22-20.71z" fill="#2f2962"/><path d="m440 196c-2.18.38 6.92 39.88 7.93 47.85s2.66 81.31 2.66 81.31 3-43.26 3.87-45.64 4.19-35.68 4.05-37.16-10.29-12.36-10.46-12.9 8.55 1 8.94.49-15.99-34.13-16.99-33.95z" fill="#fff"/><path d="m459.25 242.1c0-.19-6.57-9-10.46-12.48 2.5.29 8.46 1 8.72.64.51-.71-9.56-22.62-16.17-32.5a0 0 0 0 0 -.08 0c5.68 10.25 10.43 20.94 15.07 31.68a75.79 75.79 0 0 0 -8-.28.21.21 0 0 0 -.18.34c3.25 4.24 10.15 12.85 10.32 12.86-1.68 13.16-3.46 26.29-5.21 39.44s-3.17 26.67-2.22 39.86c0 .07.1.07.1 0a275.9 275.9 0 0 1 3-39.83c1.86-13.12 4.49-26.4 5.11-39.73z" fill="#2f2962"/><path d="m395.65 214.43c-3.89 5-10.57 12-14.2 26.2s-11.86 62.67-11.63 67.05 24.13 33.83 27.77 34.94c1.11.34 6-4.15 9.88-9 3.17-4 6-8.24 6.08-9.76.06-1.73-16.94-22.63-16.59-24.37s3.94-28.41 6.11-37.45c1.2-5.04-7.42-47.61-7.42-47.61z" fill="#fff"/><path d="m391.8 224.85a.06.06 0 0 0 -.09.09c7.74 9.23 9.23 20.81 10.82 32.32 0 .1.18.08.17 0-1.05-11.43-2.79-23.67-10.9-32.41z" fill="#2f2962"/><path d="m413.8 323.31c-3.83-6-8-11.8-12.3-17.49a41.28 41.28 0 0 0 -3.32-4.45 5.2 5.2 0 0 0 -1.1-1.42c1.24-9 3.16-17.94 4.64-26.92.68-1.58 1.3-3.18 2-4.74.05-.12-.14-.21-.21-.1q-.72 1.22-1.4 2.47c.44-2.84.83-5.69 1.12-8.54a.09.09 0 0 0 -.17 0 303 303 0 0 0 -7 37.16 16.08 16.08 0 0 0 -4.58-1.74 0 0 0 0 0 0 .09 20.4 20.4 0 0 1 3.76 1.73 5.31 5.31 0 0 1 .77.6.38.38 0 0 1 0 0c-2-.7-4.91-.57-6.82-.62a.09.09 0 0 0 0 .17c2 .53 5.38.46 7.11 1.6 2.06 1.36 3.77 4.61 5.27 6.59 4 5.25 7.75 10.63 11.58 16 .27.3.91.02.65-.39z" fill="#2f2962"/><path d="m397.46 342.21c-2.66-2.8-5.62-5.26-8.42-7.9a.06.06 0 0 0 -.08.08c2.63 2.8 5.09 5.76 7.87 8.41a.43.43 0 0 0 .63-.59z" fill="#2f2962"/></g><rect fill="#bfddda" height="68.95" rx="4.09" transform="matrix(.95266148 .30403306 -.30403306 .95266148 22.06 -228.74)" width="52.97" x="451.3" y="271.25"/><rect fill="#fff" height="7.61" rx="1.69" transform="matrix(.95234258 .30503052 -.30503052 .95234258 13.15 -233.95)" width="25.1" x="475.85" y="269.4"/><path d="m497.28 267.95-1.19 3.72-2.94-.94.55-1.71a1.72 1.72 0 0 0 -1.11-2.15l-3.89-1.25a1.72 1.72 0 0 0 -2.15 1.11l-.55 1.71-2.94-.94 1.19-3.72a2.47 2.47 0 0 1 3.12-1.61l8.31 2.66a2.48 2.48 0 0 1 1.6 3.12z" fill="#fff" transform="translate(-93.49 -97.96)"/><path d="m509.22 312.18c-1.76-1.65-14.87-7.19-16.82-6.25-2.26 1.1 9.89 7.49 9.85 7.66s-11.25-7.4-13.25-5.77c-1.71 1.4 11.3 9.19 11.3 9.19s-12.1-7.91-13.58-6.62c-1.67 1.46 10.09 9.93 9.93 10 0 0-8.25-6.34-10-5.51-1.48.71 5.47 6.89 7.49 9.43s9 1.4 11 .28 6.31-10.32 4.08-12.41z" fill="#e1916e" transform="translate(-93.49 -97.96)"/><path d="m405.63 207.39c-.26-8.91 13.71-12.09 20.37-13 8.48-1.16 15.83-.37 19.64 7.91s5.36 17.7 6.63 26.54a1.3 1.3 0 0 0 2.58-.31c-1.41-10.23-3.07-29.62-13.17-35.21s-39.07-.7-38.63 14.39c0 1.67 2.63 1.35 2.58-.31z" fill="#2f2962" transform="translate(-93.49 -97.96)"/><circle cx="454.16" cy="233.56" fill="#768ff6" r="5.98" transform="matrix(.99265212 -.12100314 .12100314 .99265212 -118.43 -41.27)"/><circle cx="454.16" cy="233.56" fill="#e4eff8" r="3.6" transform="matrix(.99265212 -.12100314 .12100314 .99265212 -118.42 -41.27)"/><path d="m413.57 235.57c5.6 25.21 4.34 31.27 2.16 34.06a16.6 16.6 0 0 1 -6 4.5l-.73-1.68.35.84-.35-.84a15 15 0 0 0 5.31-3.94c1.58-2 3-7.58-2.5-32.54z" fill="#bec1df" transform="translate(-93.49 -97.96)"/><rect fill="#768ff6" height="6.28" rx="1.11" transform="matrix(-.44947491 -.89329295 .89329295 -.44947491 255.14 663.73)" width="3.86" x="407.11" y="270.27"/><path d="m397.26 235.56c-5.69 18.61-7.29 28.86-5 32.25a14.89 14.89 0 0 0 5 4.34l-.82 1.62a16.6 16.6 0 0 1 -5.67-5c-2.68-4-1.29-13.82 4.81-33.78z" fill="#bec1df" transform="translate(-93.49 -97.96)"/><rect fill="#768ff6" height="6.28" rx="1.11" transform="matrix(.51787771 -.85545466 .85545466 .51787771 -135.68 373.38)" width="3.86" x="395.16" y="269.97"/><g transform="translate(-93.49 -97.96)"><path d="m394.93 234.22a104.44 104.44 0 0 1 3.72-12.22 10.88 10.88 0 0 1 3.81-4.31c.36 0 .33-3.2.24-5.79-.08-2.29-.21-5 .36-5.67a1.79 1.79 0 0 1 2.49 0c.6.7.53 3.37.52 5.66 0 2.6 0 5.77.4 5.78a11.86 11.86 0 0 1 3.71 4.26 86.11 86.11 0 0 1 3.82 12.46c.48 2.7-.42 3-1.19 3.23-1.1.33-1.76-.44-2.5-3.43-1.17-4.74-2.56-12.7-5.82-12.8-3.25.2-4.89 8.51-6.11 13.13-.77 2.89-1.39 3.15-2.5 2.85-.77-.22-1.56-.59-.95-3.15z" fill="#768ff6"/><path d="m430.82 112.3s-10.56-8.19-26 2c-17.54 11.6-12 30.63-16.64 41.51s-15.66 13.44-13.16 25.69c2.14 10.5 36 13.24 53 11 20.95-2.79 36-10.21 38.18-19.06s-10.41-14.25-11.31-21 .03-40.98-24.07-40.14z" fill="#2f2962"/><path d="m395.89 123.94a54.72 54.72 0 0 0 -6 17.42c-.65 4.16-.8 8.33-2.59 12.21a35.45 35.45 0 0 1 -6.89 9.4c-3.43 3.6-7.37 7.53-6.69 13a9.85 9.85 0 0 0 8.56 8.53c.1 0 .13-.16 0-.18a10 10 0 0 1 -7.61-7.34c-.94-4.11 1.13-7.56 3.77-10.46 3.21-3.54 6.68-6.63 9-10.87 2.49-4.49 2.68-9.24 3.39-14.2a66 66 0 0 1 5-17.44 0 0 0 0 0 .06-.07z" fill="#2f2962"/><path d="m467.35 165.38c-2.73-5.34-8.34-8.24-10.86-13.8-4.6-10.19-2-22.9-10-31.62a.08.08 0 0 0 -.11.11c6.68 8.67 5.06 20 8.57 29.8a25.34 25.34 0 0 0 6.93 10c4.75 4.56 8.9 11.09 4.22 17.36-.15.2.17.38.32.2 2.95-3.53 2.99-8.03.93-12.05z" fill="#2f2962"/><path d="m400.75 118.07c-6.75 4.7-9.17 11.67-10.82 19.43-.91 4.29-1.64 8.63-2.92 12.83a54.39 54.39 0 0 1 -6.38 12.89c-3.29 5.29-7 12.34-3.85 18.58 3.49 6.82 12.07 6.8 18.64 6.5.18 0 .19-.29 0-.29-8 .3-19.47-.8-19.32-11.51.11-7.6 5.81-13.11 9.09-19.49 6.53-12.68 3.63-29.09 15.67-38.76a.11.11 0 0 0 -.11-.18z" fill="#2f2962"/><path d="m437.92 198.59s1.73 24.41-1.39 25.41c-6 1.9-17.76-24.95-18.65-26.67a104.73 104.73 0 0 1 -2.88-14.09l-.27-2c-.09-.67-.17-1.3-.23-1.94-.1-.85-.18-1.68-.27-2.52-.64-6.31-1.15-11.71-1.15-11.71l3 .88 21.1 7.07.44 16.18v1 .32l.11 4.88z" fill="#e1916e"/><path d="m437.71 190.2a16.84 16.84 0 0 1 -8 1.42c-6.23-.34-10.87-3.93-14.72-8.37l-.27-2c-.09-.67-.17-1.3-.23-1.94-.1-.85-.18-1.68-.27-2.52-.64-6.31-1.15-11.71-1.15-11.71l3 .88 21.1 7.07.44 16.18z" fill="#9a593b"/><path d="m443 120.16s9.35 1.67 11.92 13.34c2.14 9.72-3.9 18.92-5.11 19.83-2.1 1.67-12.22-26.95-6.81-33.17z" fill="#2f2962"/><path d="m452.5 151.7c.6 28.67-15.42 30.58-20.28 31.5-5.52 1-27.14.66-30.7-27.8s9.58-37.79 22.41-38.72 27.97 6.32 28.57 35.02z" fill="#e1916e"/><path d="m426.46 153.68c0-.07-.14.11-.13.19.29 1.93.3 4.19-1.37 5-.05 0 0 .12 0 .11 2.14-.52 2.09-3.52 1.5-5.3z" fill="#2f2962"/><path d="m424.49 151.86c-3.15.14-2.64 6.42.27 6.29s2.37-6.4-.27-6.29z" fill="#2f2962"/><path d="m441.25 152.53c0-.07.15.1.15.18-.1 2 .12 4.2 1.87 4.88.05 0 0 .12 0 .11-2.17-.35-2.42-3.34-2.02-5.17z" fill="#2f2962"/><path d="m443 150.53c3.14-.18 3.27 6.12.36 6.29s-2.96-6.14-.36-6.29z" fill="#2f2962"/><path d="m427.73 168.28a3 3 0 0 0 1.57 1.24 5.16 5.16 0 0 0 2.12-.37.07.07 0 0 1 .08.1 2.63 2.63 0 0 1 -2.53.92 2.08 2.08 0 0 1 -1.43-1.81c-.03-.12.12-.15.19-.08z" fill="#9a593b"/><path d="m444.14 145.38a18.74 18.74 0 0 1 -1.94-.4 3.2 3.2 0 0 1 -1.9-.79 1 1 0 0 1 0-1.25 2.53 2.53 0 0 1 2.49-.6 3.72 3.72 0 0 1 2.34 1.3 1.09 1.09 0 0 1 -.99 1.74z" fill="#2f2962"/><path d="m422 146.84a18.75 18.75 0 0 0 1.89-.59 3.2 3.2 0 0 0 1.81-1 1 1 0 0 0 -.12-1.24 2.53 2.53 0 0 0 -2.54-.35 3.72 3.72 0 0 0 -2.2 1.53 1.09 1.09 0 0 0 1.16 1.65z" fill="#2f2962"/><path d="m435.39 165a8 8 0 0 1 -3 2.74 3.6 3.6 0 0 1 -2.17.32c-1.61-.28-1.77-1.72-1.59-3a8.61 8.61 0 0 1 .55-2 10.36 10.36 0 0 0 6.21 1.94z" fill="#2f2962"/><path d="m432.4 167.72a3.6 3.6 0 0 1 -2.17.32c-1.61-.28-1.77-1.72-1.59-3 1.71.05 3.48 1.05 3.76 2.68z" fill="#fadad4"/><path d="m435.88 161.22s.4 2.92.4 4.29a.94.94 0 0 1 -.8.22.05.05 0 0 1 -.05 0 6.54 6.54 0 0 1 -6.35-2.44.14.14 0 0 1 .2-.19 9.85 9.85 0 0 0 6 1.71c.1-.38-.86-5-.64-5a12 12 0 0 1 3.12.71c-.67-6.1-2.3-12-2.87-18.12a.19.19 0 0 1 .36-.09c2.16 6.11 3.08 13.11 3.93 19.39.09.78-2.74-.25-3.3-.48z" fill="#9a593b"/><path d="m403.53 157.16c4.74.43 7.79-12.31 7.79-12.31s31.86-4.41 31.72-24.69c0 0-18.12-14-35.56.1s-8.28 36.51-3.95 36.9z" fill="#2f2962"/><path d="m406.23 158.7s-5.66-9.34-9.86-7.38-.36 15.21 4.28 17.3a4.85 4.85 0 0 0 6.65-2.17z" fill="#e1916e"/><path d="m397.57 155.09a.07.07 0 0 0 0 .13c3.25 1.57 4.8 4.78 5.82 8.07-.91-1.3-2.22-2.06-3.95-1a.1.1 0 0 0 .08.18 3 3 0 0 1 3.21 1.25 14.39 14.39 0 0 1 1.39 2.75c.14.31.69.18.59-.17v-.08c.29-4.22-2.6-10.41-7.14-11.13z" fill="#9a593b"/><path d="m395.39 160.74a26.23 26.23 0 0 0 5.42 10.94c3.49 4.5 8.62 6.75 13.69 8.67.51.18.68-.67.16-.86a27.72 27.72 0 0 1 -13.6-10.49s0 0 0 0c-.2-.14-.39-.29-.58-.45-1.78-.95-3.42-3.5-4.51-6.38a1 1 0 0 1 0-.12c-.26-.42-.43-.87-.58-1.31z" fill="#fff"/><path d="m400.35 152.1a16.63 16.63 0 0 1 3.48 2.87 16 16 0 0 1 1.87 2.12c.2.25.39.51.58.77s.47.63.47.63c1.38 2 2.54 4 3.07 4.58a.22.22 0 0 0 .36-.24c-1.48-2.76-4.2-10-8.28-10.76a4.44 4.44 0 0 0 -1.55.03z" fill="#fff"/><path d="m408 159.72c-.68-1.39 9.65 3.18 20.2.66 2.16-.52 8.13-3.15 11.5-3.25s7.4 2.5 12.07 2.86c1.6.12.66 13.95-3.22 20.1-1.28 2-6.85 6.27-10.32 6.73-8.15 1.1-22.35-4.3-24.57-7-1.74-2.1.84-6.92-5.66-20.1z" fill="#fff"/><path d="m451.14 164.38a47.92 47.92 0 0 0 -9.29-2.65c-2.75-.45-5.18.62-7.74 1.63-6.86 2.68-13.85 2.63-20.9.85-.08 0-.11.12 0 .15a27.71 27.71 0 0 0 17.54.9c3.16-.84 6.28-2.65 9.58-2.55 3.6.11 7.15 1.71 10.73 2.22a.29.29 0 0 0 .08-.55z" fill="#bec1df"/><path d="m446.47 180.48c-2.17 1.13-4.3 2.76-6.56 3.58-2.71 1-6 .18-8.71-.37-5.17-1-10.15-3-15.22-4.57 0 0-.05.06 0 .08a66.53 66.53 0 0 0 17.52 5.53c2 .29 4.24.73 6.21.07 2.39-.8 4.73-2.67 6.83-4.17.05-.05 0-.18-.07-.15z" fill="#bec1df"/><path d="m449.54 169.08c-5.26-1.37-10.11-.84-15.38 0a61.39 61.39 0 0 1 -18 .23c-.06 0-.08.09 0 .11a52.4 52.4 0 0 0 16.12.33c2.6-.35 5.17-.92 7.77-1.19a30.42 30.42 0 0 1 9.5.82c.1.07.17-.25-.01-.3z" fill="#bec1df"/><path d="m448.47 174.39a25.76 25.76 0 0 1 -15.16 3.83c-5.43-.33-10.71-2.21-15.94-3.83-.07 0-.09.1 0 .12 10.52 4.06 21.13 6.68 31.27.19.18-.12.03-.42-.17-.31z" fill="#bec1df"/></g><path d="m0 312.01h564v9.14h-564z" fill="#dcdef5"/></svg>