<svg viewBox="0 0 242.14 227.93" xmlns="http://www.w3.org/2000/svg" xmlns:xlink="http://www.w3.org/1999/xlink"><linearGradient id="a" gradientTransform="matrix(.83714638 -.54697892 .54697892 .83714638 -465.79 373.46)" gradientUnits="userSpaceOnUse" x1="476.34" x2="489.57" y1="239.21" y2="227.89"><stop offset="0" stop-color="#fff" stop-opacity="0"/><stop offset=".97" stop-color="#fff"/></linearGradient><linearGradient id="b" x1="495.96" x2="509.19" xlink:href="#a" y1="253.97" y2="242.66"/><path d="m118.8 379.38c-.27-4.21.93-17.67 1-23.71.14-1 .29-2 .44-2.85a138.55 138.55 0 0 0 -15.15-2.82 189.94 189.94 0 0 0 -24-1.73c-1.14 0-2.26 0-3.38 0h-1.13c-1.12 0-2.24 0-3.38 0a189.94 189.94 0 0 0 -24 1.73 138.54 138.54 0 0 0 -15.2 2.82c.15.89.3 1.85.44 2.85.11 6 1.31 19.5 1 23.71-.84 13 1.84 52.06 2.38 59.19 0 12.06-.19 21-.43 23.06h79.4c-.24-2.08-.43-11-.43-23.06.64-7.13 3.28-46.16 2.44-59.19z" fill="#03898c" transform="translate(-14.51 -234.73)"/><path d="m103.35 349.38a214.78 214.78 0 0 0 -30.75-1.74c-6.92.11-13.45.54-19.57 1.2.36 7.25 19.81 25.15 26.73 24.9 5.92-.21 23.02-16.5 23.59-24.36z" fill="#f8bb97" transform="translate(-14.51 -234.73)"/><path d="m38.27 461.76-2.48-109.42s-5.92.7-12.28 10.24c-4.65 7-8.09 15.07-8.09 23.26l-.91 75.93h23.76z" fill="#fff" transform="translate(-14.51 -234.73)"/><path d="m47.76 461.76-2.39-104.82s-5.92.7-12.28 10.24c-4.65 7-8.09 15.07-8.09 23.26l-.54 71.32z" fill="#c8e0e0" opacity=".6" transform="translate(-14.51 -234.73)"/><path d="m77.84 461.62h-40.39c.24-2.1.43-11.09.43-23.26-.54-7.2-.81-14.09-3.19-20.9-4.66-13.36 0-25.66.81-38.81.27-4.24-2-24.54-2.15-25.43a37.19 37.19 0 0 1 15.86-4.22z" fill="#fff" transform="translate(-14.51 -234.73)"/><path d="m63.21 226.89-28.51-112.62-4.93 48.33 14.96.38-3.07 21.09z" fill="#c8e0e0"/><circle cx="60.56" cy="175.89" fill="#a7c4e4" r="5.26"/><path d="m118.5 461.76 2.5-109.42s5.92.7 12.28 10.24c4.65 7 8.09 15.07 8.09 23.26l.91 75.93h-23.78z" fill="#fff" transform="translate(-14.51 -234.73)"/><path d="m109 461.76 2.38-104.82s5.92.7 12.28 10.24c4.65 7 8.09 15.07 8.09 23.26l.54 71.32z" fill="#c8e0e0" opacity=".6" transform="translate(-14.51 -234.73)"/><path d="m78.94 461.62h40.39c-.24-2.1-.43-11.09-.43-23.26.54-7.2.81-14.09 3.19-20.9 4.66-13.36 0-25.66-.81-38.81-.27-4.24 2-24.54 2.15-25.43a37.19 37.19 0 0 0 -15.86-4.22z" fill="#fff" transform="translate(-14.51 -234.73)"/><path d="m97.99 162.6-4.93-48.33-28.51 112.62 21.55-42.82-3.07-21.09z" fill="#c8e0e0"/><path d="m75 411.52a1.15 1.15 0 0 1 -1.05-.69c-17.55-40.07-16.27-63.6-16.2-64.59a1.15 1.15 0 0 1 2.3.15c0 .24-1.29 24 16 63.52a1.15 1.15 0 0 1 -1.05 1.61z" fill="#0a2845" transform="translate(-14.51 -234.73)"/><path d="m97.77 377.18-2.23-.57c4.94-19.18 4.32-30.11 4.32-30.21l2.3-.15c.03.45.66 11.35-4.39 30.93z" fill="#0a2845" transform="translate(-14.51 -234.73)"/><path d="m97.26 411.66-1.9-1.3c6.63-9.71 7.53-23.77 5.22-28.81a5.82 5.82 0 0 0 -4-3.31c-5.37-1.16-7.89 6.63-9.32 12.59a49.11 49.11 0 0 0 -.45 19.48l-2.27.39a51.42 51.42 0 0 1 .48-20.4c1.05-4.4 3.86-16.07 12-14.3a8.13 8.13 0 0 1 5.58 4.6c2.66 5.63 1.84 20.54-5.34 31.06z" fill="#0a2845" transform="translate(-14.51 -234.73)"/><circle cx="71.39" cy="176.47" fill="#a7c4e4" r="2.37"/><circle cx="81.1" cy="177.36" fill="#a7c4e4" r="2.37"/><path d="m48.95 84.18h30.68v36.72h-30.68z" fill="#f8bb97"/><path d="m65.06 342.37a16.43 16.43 0 0 0 14.54 9.21c7.77 0 11.18-7.87 14.33-18.58l-30.75.25s1.13 6.37 1.88 9.12z" fill="#f8bb97" opacity=".52" transform="translate(-14.51 -234.73)"/><path d="m101.71 305.2c0 17-8.71 37.79-24 37.79s-24-20.76-24-37.79 8.71-30.84 24-30.84 24 13.81 24 30.84z" fill="#f8bb97" transform="translate(-14.51 -234.73)"/><path d="m100.64 304c-1.63-2.8-19-14.22-19.24-16.7.1 1-18.67 14.5-26.29 13.62-.05.88-.61 4.76-.64 5.64-.61 15.87 8.32 36.43 23 36.43 13.91 0 23.38-17.39 23.5-33 .03-1.39.39-4.74-.33-5.99z" fill="#f8d4be" transform="translate(-14.51 -234.73)"/><path d="m77.61 319.52a12.28 12.28 0 0 1 -3.47-.56.45.45 0 0 0 -.47.74 6.47 6.47 0 0 0 2.72 1.79 5.52 5.52 0 0 0 1.22.21 5.52 5.52 0 0 0 1.22-.21 6.47 6.47 0 0 0 2.72-1.79.45.45 0 0 0 -.47-.74 12.28 12.28 0 0 1 -3.47.56z" fill="#f8bb97" transform="translate(-14.51 -234.73)"/><ellipse cx="52.14" cy="72.37" fill="#0a2845" rx="1.53" ry="2.26"/><path d="m61.19 302.58a5.21 5.21 0 0 1 2.34-2.26 7.67 7.67 0 0 1 3.41-.87 8.19 8.19 0 0 1 3.51.69 6.06 6.06 0 0 1 2.65 2.09.37.37 0 0 1 -.15.54.48.48 0 0 1 -.37 0 21.56 21.56 0 0 0 -2.82-.73 14.06 14.06 0 0 0 -2.66-.2 13.2 13.2 0 0 0 -2.61.34 17.76 17.76 0 0 0 -2.68.9.47.47 0 0 1 -.59-.2.37.37 0 0 1 -.03-.3z" fill="#0a2845" transform="translate(-14.51 -234.73)"/><ellipse cx="74.43" cy="72.37" fill="#0a2845" rx="1.53" ry="2.26"/><path d="m94.39 302.58a5.21 5.21 0 0 0 -2.34-2.26 7.67 7.67 0 0 0 -3.41-.87 8.19 8.19 0 0 0 -3.51.69 6.06 6.06 0 0 0 -2.65 2.09.37.37 0 0 0 .15.54.48.48 0 0 0 .37 0 21.56 21.56 0 0 1 2.82-.73 14.06 14.06 0 0 1 2.66-.2 13.2 13.2 0 0 1 2.61.34 17.76 17.76 0 0 1 2.68.9.47.47 0 0 0 .59-.2.37.37 0 0 0 .03-.3z" fill="#0a2845" transform="translate(-14.51 -234.73)"/><path d="m70.12 326.85a1.29 1.29 0 0 0 -1 2.11 11.44 11.44 0 0 0 17.14 0 1.29 1.29 0 0 0 -1-2.11 59.21 59.21 0 0 1 -15.14 0z" fill="#fff" transform="translate(-14.51 -234.73)"/><path d="m50.69 347c4.69 1.88 5.51 2.85 10.6 4-1.51-5.7-2.83-11.23-3.89-15.65-2.19-9.13-3.81-23.35-3.3-32.83 2.12-.18 4.32-1.38 6.43-2.39 6.71-3.21 12-6.8 16.37-12.58 2.34-3.09 9.28-13.72 3.89-16.83-15.31-8.81-24.81 3.57-29.32 12.74a48.87 48.87 0 0 0 -4.63 16.36l-3.53 31.18c-.31 2.87 7.36 16 7.38 16z" fill="#071c30" transform="translate(-14.51 -234.73)"/><path d="m78.45 273.87c-1.47-4.65-7.17-6.2-8.49-6.2-9.19 0-15.65 9.4-18.39 15a49.91 49.91 0 0 0 -4.57 16.33c-.69 6.34-1.85 12.66-2.66 19-.87 6.81-2.69 14-.8 20.79 2.24 8 8.43 10 15.79 11.76-1.53-5.73-2.87-11.31-3.94-15.78l-.13-.53c-2.39-10-3.82-24.25-3.34-33.25l.08-1.33 1.27-.11a15.94 15.94 0 0 0 5.08-1.84l.83-.4c7.3-3.5 12-7.13 15.83-12.14 1.4-1.89 4.99-6.27 3.44-11.3z" fill="#0a2845" transform="translate(-14.51 -234.73)"/><path d="m98.55 333.5c-.2 2.81-1.77 10.94-3.36 18.76 1.92-.16 8.32-1.77 8.59-1.86 6.87-2.2 9.48-9.8 10.36-16.28 1.21-8.94-.62-17.84-2.11-26.63-1.59-9.37-4.06-18.79-8.87-27.07-2.86-4.92-6.59-9-12.1-10.72-3.71-1.18-7-1.71-10.64-.73a11.68 11.68 0 0 0 -1.88.73c1.79.38 3.62 1.58 3 3.66a.34.34 0 0 1 -.12.17c-.91 6.27 1.23 11 5.85 15.44 4.33 4.2 8.46 8 11.29 13.41a23.3 23.3 0 0 1 2.76 12.77c-.32 6.16-2.32 12.15-2.77 18.35z" fill="#0a2845" transform="translate(-14.51 -234.73)"/><ellipse cx="49.22" cy="85.09" fill="#f79ca5" rx="4.14" ry="3.03"/><ellipse cx="76.58" cy="85.09" fill="#f79ca5" rx="4.14" ry="3.03"/><path d="m66.78 352.71c-1.44-9.4-2.94-17-2.94-17-8.57-9.46-9.22-21.71-9.22-21.71l-2.2-.49c-1.6 14.87-.62 26.49 1.58 35.49 2.76.89 9.88 3.11 12.78 3.71z" fill="#071c30" transform="translate(-14.51 -234.73)"/><ellipse cx="53.79" cy="307.84" fill="#f8d4be" rx="3.49" ry="6.18" transform="matrix(.99878902 -.04919842 .04919842 .99878902 -29.58 -231.71)"/><path d="m54.55 304.74a1.13 1.13 0 0 0 -.2 0c-1 0-1.81 1.54-1.72 3.32s.93 3.05 1.92 3.12c-.07-2.18-.01-4.3 0-6.44z" fill="#f8bb97" transform="translate(-14.51 -234.73)"/><path d="m104 350.38c2.76-10.15 3.71-23 0-38.44l-2.81 1.9s-1.3 11.77-7.31 19.16a128.26 128.26 0 0 1 -.88 20 109.12 109.12 0 0 0 11-2.62z" fill="#071c30" transform="translate(-14.51 -234.73)"/><ellipse cx="101.28" cy="307.84" fill="#f8d4be" rx="3.49" ry="6.18" transform="matrix(.99878902 -.04919842 .04919842 .99878902 -29.52 -229.38)"/><g transform="translate(-14.51 -234.73)"><path d="m100.21 304.94a1.12 1.12 0 0 1 .19-.06c1-.12 2 1.21 2.25 3s-.41 3.17-1.38 3.4c-.27-2.13-.68-4.23-1.06-6.34z" fill="#f8bb97"/><path d="m91.2 301.59c-2 0-7.34.48-8.72 1.24a5.07 5.07 0 0 1 -2.59.9h-2-2a5.07 5.07 0 0 1 -2.56-1c-1.35-.81-6.62-1.52-8.67-1.56-1.66 0-7.43.13-10 .34a1.23 1.23 0 0 0 -1.13 1.27v.92a1.28 1.28 0 0 0 .52 1 2.79 2.79 0 0 1 1 2c.22 1.9 1.14 7.49 3.53 9.16 2.16 1.5 6.26 2.63 11.26.6a10.36 10.36 0 0 0 2.41-1.64 13.6 13.6 0 0 0 3.5-6.27s.25-2.19 2-2.16 1.9 2.23 1.9 2.23a13.6 13.6 0 0 0 3.35 6.31 10.36 10.36 0 0 0 2.35 1.72c4.92 2.21 9.06 1.23 11.28-.19 2.45-1.58 3.58-7.13 3.86-9a2.87 2.87 0 0 1 1-1.86 1.92 1.92 0 0 0 .71-1.34 1.89 1.89 0 0 0 -1.69-2c-2.77-.32-7.78-.64-9.31-.67zm-17.2 6.95a8 8 0 0 1 -2.8 5.69 9.71 9.71 0 0 1 -11.76.49c-2.44-1.65-3.46-8.22-1.58-10.58 1.5-1.89 5-1.78 7.51-1.67 3.82.18 6 .5 7.15 1.33a3.37 3.37 0 0 1 1.4 1.87 12 12 0 0 1 .08 2.87zm22 6.84a9.71 9.71 0 0 1 -11.73-.92 8 8 0 0 1 -2.59-5.79 12 12 0 0 1 .18-2.86 3.37 3.37 0 0 1 1.5-1.81c1.23-.79 3.38-1 7.2-1.07 2.53 0 6 0 7.44 1.94 1.79 2.43.54 8.96-2 10.51z" fill="#0a2845"/><path d="m72.49 303.81c-1.2-.84-3.34-1.16-7.15-1.33-2.52-.12-6-.22-7.51 1.67-1.88 2.36-.86 8.93 1.58 10.58a9.71 9.71 0 0 0 11.76-.49 8 8 0 0 0 2.8-5.69 12 12 0 0 0 -.08-2.87 3.37 3.37 0 0 0 -1.4-1.87z" fill="url(#a)" opacity=".5"/><path d="m83.36 304c1.23-.79 3.38-1 7.2-1.07 2.53 0 6 0 7.44 1.94 1.79 2.43.54 9-2 10.51a9.71 9.71 0 0 1 -11.73-.92 8 8 0 0 1 -2.59-5.79 12 12 0 0 1 .18-2.86 3.37 3.37 0 0 1 1.5-1.81z" fill="url(#b)" opacity=".5"/><g fill="#fff" opacity=".6"><path d="m60.81 302.62-3.67 7.88a8.45 8.45 0 0 0 1.61 3.63l5.45-11.69a16.91 16.91 0 0 0 -3.39.18z"/><path d="m65.33 302.47h-.42l-5.66 12.15.15.11a10.57 10.57 0 0 0 1.33.76l6-12.93z"/></g><g fill="#fff" opacity=".6"><path d="m85.46 303.27-3.46 7.35a7.19 7.19 0 0 0 1.75 3.31l5.11-11a24.13 24.13 0 0 0 -3.4.34z"/><path d="m90.56 302.93h-.92l-5.36 11.5a7.8 7.8 0 0 0 1.36 1.05l5.87-12.59h-1z"/></g><path d="m236.44 462.66c-3.35-49.83-4.32-139.44-14.07-149.35a99.94 99.94 0 0 0 -35.72-6.9c-11.66-.08-27.2 3.26-34.17 5.27 0 0-18 40.72-15.85 73.51 1 14.79-5.68 59.79-7.21 77.11z" fill="#5a71ce"/><path d="m173.71 399.87c-14.67 1.79-37.18 4.21-37.18 4.21s.08-40.66 3.78-59a62.92 62.92 0 0 1 1.67-8c5-14.68 2.27-16.14 9.33-23.67-.62.76-14.87-2.26-22.24 18.46-6.13 17.23-21.82 71.6-22.21 75.87-1.83 19.56 8.66 19.3 8.66 19.3a111.26 111.26 0 0 0 29.18.25c8.51-1 20.45-2.78 29.92-4.24 8.7-1.32 21.82-3.68 21.82-3.68z" fill="#f8bb97"/><path d="m147.95 404.4c4.07 1.9 8.24 3.84 12.14 6.05a48.76 48.76 0 0 1 14.52 12.65c8.7-1.32 21.82-3.68 21.82-3.68l-22.73-19.55c-8.88 1.09-20.62 2.4-28.52 3.27.94.41 1.82.86 2.77 1.26z" fill="#f7a677"/><path d="m138.49 375.28c.93-10.95 2.18-22.62 3.74-30.31a68.35 68.35 0 0 1 2.26-8.28 241.25 241.25 0 0 1 10.22-25.43c-.62.76-20.8-.48-28.17 20.24-3.1 8.72-8.65 26.93-13.42 43.37z" fill="#5a71ce"/><path d="m142.22 345c-3.7 18.31-5.69 59.12-5.69 59.12s-9.64-1-15.09 0l9.09-4.63s5.18-54.27 16.47-70.93c0-.03-4.2 13.57-4.78 16.44z" fill="#d9d9d9"/><path d="m256.5 418.43c-.07-.75-1.46-29.65-4.42-55.27-2.74-.11-5.57.13-8.22.13q-6.34 0-12.68.08h-2.63c.46 15.58.94 37 .94 37-15.24.1-53.77-6.08-53.77-6.08l-.07.06c-5-1.28-14.16-3.22-18.71-1.9-4.1 1.15-9.22 5.25-12.46 8.11-1.9 1.67-3.14 2.93-3.14 2.93a3 3 0 0 0 .38 0c1.69.15 8.51.79 12.25 1.92 3.42 1 11.68 3.73 14.86 4.77v.31c10.43 4 47.56 19.82 76.25 21.69 5.25.45 12.7.48 11.42-13.75z" fill="#f8bb97"/><path d="m228 349.25c.24 4.14.57 15.23.85 26h26.47c-2-20.46-6.87-41.94-10.86-48.88-6-10.47-23-13.24-23-13.24 4.54 6.14 6.8 23.26 6.54 36.12z" fill="#5a71ce"/><path d="m226.43 327.73 3.16 71.87 8.66 3.44s3.45-1.06 3.59-6.11-2.26-6.24-2.26-6.24c1.53-3.12-.88-4.9-3-5.2l-1.08-.11z" fill="#d9d9d9"/><path d="m235.81 402.07a1.45 1.45 0 0 1 -.83-.28 38.23 38.23 0 0 0 -9.07-1.4c-2.55 0-24.06 1.38-17.93-2.32 1.88-1.46 9.36-7.62 17.6-9.4s9.95-1.55 10.72-1.34a1.66 1.66 0 0 1 1 2.15 4.24 4.24 0 0 1 -2.06 2.22c.23-.1 2.24 2.26 2.44 5.25.19 2.27-.68 4.97-1.87 5.12z" fill="#f8bb97"/><path d="m219.1 393.58a11.64 11.64 0 0 1 -1.08-2.14 60.27 60.27 0 0 0 -10.02 6.62c4 1.18 15.38 2.36 17.93 2.32 1.11.07 2.1.16 3 .25-3.93-1.46-7.54-3.46-9.83-7.05z" fill="#f7a677"/><path d="m164.55 308.62s28.11-4.68 44.68.54c0 0-.18 18.92-20.18 30.81.01.03-21.97-8.11-24.5-31.35z" fill="#97aaf7"/><path d="m188.15 333.84s-15.67-7.93-16.64-22.16v-29.78l31.77.6v29.35c-1.43 12.62-15.13 21.99-15.13 21.99z" fill="#f8bb97"/><path d="m171.35 296.19c1.63 6.11 7.47 14.5 14 15.85 8.5 1.75 12.58-4.38 15.79-11.16a17.37 17.37 0 0 0 1.91-8.46c-4.52-.18-9 1-13.52 1.55s-9.1 1.14-13.6 1.28c-1.42.04-4.13-.03-4.58.94z" fill="#f8bb97" opacity=".52"/><path d="m209 271.41c-.3 16-9 35.31-22.73 35.05s-22.54-19.92-22.27-35.9 9.72-28.77 23.49-28.51 21.85 13.38 21.51 29.36z" fill="#f8bb97"/><path d="m200.14 257.05a122.63 122.63 0 0 1 -13.09 1.54 81.77 81.77 0 0 1 -14.49-.93c-.63 4.65-2.47 9-6.85 11.44a.5.5 0 0 1 -.29.06 12.17 12.17 0 0 1 -.06 1.42c-3.15 18.4 8.6 35.64 21 35.87 5.76.11 12.33-3.24 16.41-10.29 3.69-6.4 6-16.3 6.14-24.3 0-1.44-1.18-3.32-1.29-4.68-3.98-2.11-7.16-5.67-7.48-10.13z" fill="#f8d4be"/></g><ellipse cx="210.12" cy="273.76" fill="#f8d4be" rx="7.28" ry="3.01" transform="matrix(.01884844 -.99982235 .99982235 .01884844 -82.07 243.93)"/><path d="m209.4 277.08c-.51-.1-1.65-1.51-1.61-3.88s1.26-3.75 1.76-3.82 1.65 1.5 1.6 3.88-1.24 3.74-1.75 3.82z" fill="#f8bb97" transform="translate(-14.51 -234.73)"/><ellipse cx="163.08" cy="272.87" fill="#f8d4be" rx="7.28" ry="3.23" transform="matrix(.01884844 -.99982235 .99982235 .01884844 -127.33 196.02)"/><path d="m163.16 276c-.45 0-1.74-1.3-1.69-3.71s1.38-3.66 1.83-3.65 1.74 1.3 1.7 3.71-1.39 3.7-1.84 3.65z" fill="#f8bb97" transform="translate(-14.51 -234.73)"/><path d="m164.2 275.73 3.05.28 1.14-7.24c1.47-4.39 2.92-8.89 1.72-13.37l-.48-1.79s20.34 4.7 32.82-1.68v2.4a23.35 23.35 0 0 0 2.68 13.43l.12.22.7 8.39 2.86.2 1.25-14.9s1.19-16.09-12.37-22.74c0 0-23.21-9.71-31.72 8.89-.86 1.88-1.55 3.37-2.11 4.55-1 4.1-1.81 11.09-.22 13.72z" fill="#0a2845" transform="translate(-14.51 -234.73)"/><path d="m187 281a11.07 11.07 0 0 1 -3.12-.56.41.41 0 0 0 -.43.66 5.83 5.83 0 0 0 2.42 1.66 5 5 0 0 0 1.13.24 5 5 0 0 0 1.1-.17 5.83 5.83 0 0 0 2.48-1.57.41.41 0 0 0 -.41-.68 11.07 11.07 0 0 1 -3.17.42z" fill="#f8bb97" transform="translate(-14.51 -234.73)"/><ellipse cx="177.69" cy="271.74" fill="#0a2845" rx="2.25" ry="1.52" transform="matrix(.01884844 -.99982235 .99982235 .01884844 -111.88 209.52)"/><ellipse cx="196.71" cy="271.74" fill="#0a2845" rx="2.25" ry="1.52" transform="matrix(.01884844 -.99982235 .99982235 .01884844 -93.21 228.55)"/><path d="m172.1 268a4.68 4.68 0 0 1 1.63-2.31 5.91 5.91 0 0 1 2.64-1.2 6 6 0 0 1 2.89.18 4.8 4.8 0 0 1 2.36 1.54.36.36 0 0 1 -.35.58 15.73 15.73 0 0 0 -2.34-.3 10.26 10.26 0 0 0 -2.15.15 9.89 9.89 0 0 0 -2.06.63 13.91 13.91 0 0 0 -2.05 1.14.36.36 0 0 1 -.57-.41z" fill="#0a2845" transform="translate(-14.51 -234.73)"/><path d="m201.94 268.57a4.68 4.68 0 0 0 -1.54-2.37 5.91 5.91 0 0 0 -2.59-1.3 6 6 0 0 0 -2.89.07 4.81 4.81 0 0 0 -2.41 1.45.36.36 0 0 0 .33.59 15.75 15.75 0 0 1 2.35-.21 10.25 10.25 0 0 1 2.15.23 9.88 9.88 0 0 1 2 .7 13.92 13.92 0 0 1 2 1.21.36.36 0 0 0 .6-.37z" fill="#0a2845" transform="translate(-14.51 -234.73)"/><ellipse cx="172.46" cy="278.67" fill="#f8bb97" rx=".39" ry=".83" transform="matrix(.01884844 -.99982235 .99982235 .01884844 -123.92 211.11)"/><ellipse cx="176.01" cy="277.8" fill="#f8bb97" rx=".39" ry=".83" transform="matrix(.01884844 -.99982235 .99982235 .01884844 -119.58 213.79)"/><ellipse cx="175.51" cy="280.88" fill="#f8bb97" rx=".39" ry=".83" transform="matrix(.01884844 -.99982235 .99982235 .01884844 -123.15 216.31)"/><ellipse cx="197.69" cy="279.15" fill="#f8bb97" rx=".39" ry=".83" transform="matrix(.01884844 -.99982235 .99982235 .01884844 -99.66 236.79)"/><ellipse cx="201.24" cy="278.28" fill="#f8bb97" rx=".39" ry=".83" transform="matrix(.01884844 -.99982235 .99982235 .01884844 -95.31 239.48)"/><ellipse cx="200.74" cy="281.36" fill="#f8bb97" rx=".39" ry=".83" transform="matrix(.01884844 -.99982235 .99982235 .01884844 -98.88 242.01)"/><path d="m179.1 288.44a1.29 1.29 0 0 0 -1.09 2 11.07 11.07 0 0 0 18.31 0 1.29 1.29 0 0 0 -1.09-2z" fill="#fff" transform="translate(-14.51 -234.73)"/><path d="m175.72 254.39a17.21 17.21 0 0 1 -14.43-13.27c3 1.22 3.56 1.49 5.61 1.36-2.23-1.28-2.88-3-2.32-6.06 3.94 2.12 5.92 1.94 8.54 1a42.22 42.22 0 0 1 15.65-2.69c5.19.27 11.32 1.63 13.88 6.76 1 2.09 2.3 6.76.9 8.89-1.89 2.88-7.84 2.53-10.72 2.74-6.84.49-13 1-19.81.15" fill="#0a2845" transform="translate(-14.51 -234.73)"/><circle cx="152.98" cy="354.79" fill="#a7c4e4" r="5.52" transform="matrix(.0382134 -.9992696 .9992696 .0382134 -221.9 259.38)"/><path d="m171.77 307.91a21.41 21.41 0 0 1 0-2.19c-13.26 2-20.79 14.8-22 24.86-1.07 8.92-.47 17.12 1.69 23.08a1.08 1.08 0 0 0 1 .71 1.06 1.06 0 0 0 .37-.07 1.08 1.08 0 0 0 .65-1.38c-2.05-5.65-2.61-13.49-1.58-22.08.22-2.05 4.23-20.37 19.87-22.93z" fill="#0a2845" transform="translate(-14.51 -234.73)"/><path d="m204.39 306.68v2.26c11.32 3.9 14.23 20.46 11.89 31.39a1.08 1.08 0 0 0 .83 1.28h.23a1.08 1.08 0 0 0 1.06-.85c2.46-11.48-.34-30.05-14.01-34.08z" fill="#071c30" transform="translate(-14.51 -234.73)"/><path d="m203.27 306.28v2.25c11.42 3.82 15.36 20.83 13 31.8a1.08 1.08 0 0 0 .83 1.28h.23a1.08 1.08 0 0 0 1.06-.85c2.48-11.52-1.39-30.53-15.12-34.48z" fill="#0a2845" transform="translate(-14.51 -234.73)"/><path d="m214.1 374.79-1.77-1.47c7.49-9.06 9.69-23 7.85-28.2a5.82 5.82 0 0 0 -3.65-3.67c-5.24-1.65-8.47 5.87-10.44 11.68a49.1 49.1 0 0 0 -2.24 19.35l-2.29.17a51.43 51.43 0 0 1 2.35-20.27c1.46-4.28 5.32-15.65 13.31-13.13a8.13 8.13 0 0 1 5.13 5.1c2.05 5.86-.14 20.65-8.25 30.44z" fill="#0a2845" transform="translate(-14.51 -234.73)"/><circle cx="202.82" cy="373.28" fill="#a7c4e4" r="2.37" transform="matrix(.0921968 -.9957408 .9957408 .0921968 -202.07 306.11)"/><circle cx="212.41" cy="375.07" fill="#a7c4e4" r="2.37" transform="matrix(.09 -1 1 .09 -195.14 317.28)"/></svg>