<svg viewBox="0 0 600 400" xmlns="http://www.w3.org/2000/svg"><g fill="#0065a1"><path d="m142.65 235.13a6.92 6.92 0 0 1 -6.92 6.92h-25.66a6.92 6.92 0 1 1 0-13.84h17a15 15 0 1 0 -6.38 20.23 14.75 14.75 0 0 0 3.26-2.29 6.92 6.92 0 0 1 9.42 10.13 28.87 28.87 0 1 1 9.22-21.16z"/><path d="m439 236.31c-2.92-2.5-7.61-4.38-14.34-5.74a40.8 40.8 0 0 1 -6.78-1.88 6 6 0 0 1 -2.57-1.6 3 3 0 0 1 -.52-1.87c0-.64.18-1.47 1.62-2.22a12.47 12.47 0 0 1 5.78-1.15 17.23 17.23 0 0 1 5.38.74 11.54 11.54 0 0 1 4 2.48 7.72 7.72 0 0 0 5.32 2.13 5.84 5.84 0 0 0 3.6-1.11 5.23 5.23 0 0 0 2.14-4.1 6.28 6.28 0 0 0 -1.54-3.94 19.3 19.3 0 0 0 -7.86-5.61 28.61 28.61 0 0 0 -10.89-2 27.63 27.63 0 0 0 -9.34 1.56 17.2 17.2 0 0 0 -7.41 5 12.6 12.6 0 0 0 -3 8.44c0 8 6.15 13.27 18.28 15.61 4.07.77 6.94 1.7 8.54 2.76a3.62 3.62 0 0 1 1.91 3 3.21 3.21 0 0 1 -1.83 3 13.48 13.48 0 0 1 -6.83 1.41 17 17 0 0 1 -6.42-1.23 11.89 11.89 0 0 1 -4.4-2.81c-2.51-2.51-5.52-2.89-8.74-.52a5.88 5.88 0 0 0 -2.47 4.85 5.48 5.48 0 0 0 1.66 4 23.31 23.31 0 0 0 8.91 5.24 35.63 35.63 0 0 0 11.8 1.96 27 27 0 0 0 10.94-2 16.4 16.4 0 0 0 7.21-5.81 14.79 14.79 0 0 0 2.49-8.31 13 13 0 0 0 -4.64-10.28z"/><path d="m489.42 236.31c-2.92-2.5-7.61-4.38-14.34-5.74a40.8 40.8 0 0 1 -6.78-1.88 6 6 0 0 1 -2.57-1.6 3 3 0 0 1 -.52-1.87c0-.64.18-1.47 1.62-2.22a12.47 12.47 0 0 1 5.78-1.15 17.23 17.23 0 0 1 5.38.74 11.54 11.54 0 0 1 4 2.48 7.72 7.72 0 0 0 5.32 2.13 5.84 5.84 0 0 0 3.6-1.11 5.23 5.23 0 0 0 2.14-4.1 6.28 6.28 0 0 0 -1.54-3.94 19.3 19.3 0 0 0 -7.86-5.61 28.61 28.61 0 0 0 -10.89-2 27.63 27.63 0 0 0 -9.37 1.6 17.2 17.2 0 0 0 -7.41 5 12.6 12.6 0 0 0 -3 8.44c0 8 6.15 13.27 18.28 15.61 4.07.77 6.94 1.7 8.54 2.76a3.62 3.62 0 0 1 1.91 3 3.21 3.21 0 0 1 -1.83 3 13.48 13.48 0 0 1 -6.83 1.41 17 17 0 0 1 -6.42-1.23 11.89 11.89 0 0 1 -4.4-2.81c-2.51-2.51-5.52-2.89-8.74-.52a5.88 5.88 0 0 0 -2.47 4.85 5.48 5.48 0 0 0 1.66 4 23.31 23.31 0 0 0 8.91 5.24 35.63 35.63 0 0 0 11.81 1.94 27 27 0 0 0 10.94-2 16.4 16.4 0 0 0 7.21-5.81 14.79 14.79 0 0 0 2.49-8.31 13 13 0 0 0 -4.62-10.3z"/><path d="m235.44 214.83a19.75 19.75 0 0 0 -18.51.14 6 6 0 0 0 -10.73 3.6v36.53a6 6 0 0 0 12 0v-23.36a6.6 6.6 0 0 0 .57-1.37 7.82 7.82 0 0 1 9.62-5.5 8.17 8.17 0 0 1 1.49.57 6 6 0 0 0 5.56-10.61z"/><path d="m265.7 211.64a25.15 25.15 0 1 0 25.18 25.19 25.15 25.15 0 0 0 -25.18-25.19zm0 38.34a13.19 13.19 0 1 1 13.18-13.2v.05a13.2 13.2 0 0 1 -13.18 13.17z"/><path d="m371.28 212a25 25 0 1 0 17 43.27 6 6 0 0 0 -7.48-9.38 5.66 5.66 0 0 0 -.67.62 13 13 0 1 1 2.7-15.51h-14.74a6 6 0 1 0 0 12h22.18a6 6 0 0 0 6-6 25 25 0 0 0 -24.99-25z"/><path d="m319.26 211.83a25.05 25.05 0 1 0 20 40.13 6 6 0 0 0 -9.55-7.21 13.11 13.11 0 1 1 1.46-13.34 6 6 0 0 0 10.88-5 25.15 25.15 0 0 0 -22.79-14.58z"/><path d="m189.67 181.36a6 6 0 0 0 -3.24-1h-22.86a6 6 0 0 0 0 12h19.88a8.64 8.64 0 1 1 0 17.28h-19.88a6 6 0 0 0 -6 6v40a6 6 0 0 0 12 0v-34h15.92a5.9 5.9 0 0 0 2.34-.48 20.6 20.6 0 0 0 1.85-39.77z"/><path d="m398.39 272.56c3.49 3.72 5.26 8.9 5.26 15.4v25.5a6.27 6.27 0 0 1 -1.75 4.5 6.36 6.36 0 0 1 -10.93-4.5v-25.46c0-3.13-.74-5.48-2.21-7a7.88 7.88 0 0 0 -6-2.26 8.14 8.14 0 0 0 -6.31 2.64 9.7 9.7 0 0 0 -2.5 7v25.14a6.27 6.27 0 0 1 -1.75 4.5 6.36 6.36 0 0 1 -10.93-4.5v-25.52c0-3.13-.74-5.48-2.21-7a7.88 7.88 0 0 0 -6-2.26 8.27 8.27 0 0 0 -6.4 2.64 9.7 9.7 0 0 0 -2.5 7v25.12a6.27 6.27 0 0 1 -1.75 4.5 6 6 0 0 1 -4.13 1.82 6.49 6.49 0 0 1 -6.5-2.25l-13.42-16.74h-60.42a6.47 6.47 0 0 1 -4.65-2l-12.5-12.77-11.79 30.56a6.52 6.52 0 0 1 -5.37 4.13h-.63a6.49 6.49 0 0 1 -5.43-2.93l-11.22-17h-104.41a9.78 9.78 0 1 1 -.81-13.81q.42.39.81.81h107.87a6.52 6.52 0 0 1 5.43 2.93l6.2 9.43 10.86-28.18a6.5 6.5 0 0 1 8.42-3.68 6.65 6.65 0 0 1 2.29 1.52l17.66 18h60.8a6.52 6.52 0 0 1 5.06 2.42l5 6.17v-22.6a6.08 6.08 0 0 1 1.84-4.59 6.67 6.67 0 0 1 9 0 6.46 6.46 0 0 1 1 1.32 18.58 18.58 0 0 1 3.92-2.13 20.25 20.25 0 0 1 7.62-1.42 19.64 19.64 0 0 1 9 2 17.69 17.69 0 0 1 5.22 4 20.47 20.47 0 0 1 5.82-4 22.64 22.64 0 0 1 9.67-2 18.23 18.23 0 0 1 13.77 5.55zm36.51-3.8a25 25 0 1 0 17 43.27 6 6 0 0 0 -8.15-8.76 13 13 0 1 1 2.7-15.51h-14.74a6 6 0 0 0 0 12h22.17a6 6 0 0 0 6-6 25 25 0 0 0 -25-25zm80.24-32.27v75.9a6 6 0 0 1 -11.51 2.27 25.16 25.16 0 1 1 -.45-42.48v-35.7a6 6 0 1 1 12 0zm-12 57.07a13.19 13.19 0 1 0 -13.14 13.19 13.2 13.2 0 0 0 13.19-13.19z"/><path d="m320.47 91.42a34.08 34.08 0 0 0 -4.73.33v22.62a12.29 12.29 0 0 1 17 11.34c0 24.62-26.93 38.75-32.74 40.11-5.81-1.35-32.74-15.48-32.74-40.11a12.29 12.29 0 0 1 17-11.34v-22.61a34.26 34.26 0 0 0 -38.67 29.17 35.42 35.42 0 0 0 -.33 4.83c0 21.77 12.25 37.09 22.52 46.12 10.59 9.3 24.14 16 32.22 16s21.63-6.75 32.22-16c10.27-9 22.52-24.35 22.52-46.12a34.33 34.33 0 0 0 -34.27-34.34z"/><path d="m300 79.24a9.7 9.7 0 0 0 -9.7 9.7v36a9.7 9.7 0 0 0 19.39 0v-36a9.71 9.71 0 0 0 -9.69-9.7z"/></g></svg>