<svg viewBox="0 0 177.46 260.42" xmlns="http://www.w3.org/2000/svg" xmlns:xlink="http://www.w3.org/1999/xlink"><clipPath id="a" transform="translate(-135.03 -84.28)"><circle cx="213.76" cy="127.49" r="4.83" transform="matrix(.70710678 -.70710678 .70710678 .70710678 -27.54 188.49)"/></clipPath><clipPath id="b" transform="translate(-135.03 -84.28)"><circle cx="230.97" cy="127.83" r="4.83" transform="matrix(.70710678 -.70710678 .70710678 .70710678 -22.74 200.76)"/></clipPath><path d="m205.91 167.87c.41-.65 15.95 7.16 33.41-3s7.26 97.13 7.26 97.13l-1.42 55.75-2 26.92h-43.5l-8.91-84.67s9.09-82.52 15.16-92.13z" fill="#5dcec1" transform="translate(-135.03 -84.28)"/><path d="m284.47 183.72c-7.11-6.11-39.81-18.52-39.81-18.52l-5.34 9.54s1.73 118.31.84 142.68v27.28h39.92l.2-61.61c11.54-2.93 20.41-7.79 25.29-13.13 5.53-6.06 6.87-9.47 6.87-17.53s-20.86-62.6-27.97-68.71z" fill="#fff" transform="translate(-135.03 -84.28)"/><path d="m202.32 272 .58-.94v-104.79s-32.71 12.41-39.81 18.52-27.77 62.6-28 70.65c-.78 32 27 72.26 27 72.26a16 16 0 0 0 2.6-1.56c-.54 7.44-1.46 18.57-1.46 18.57h43.36s.14-33.11 0-34.62c-.05-.91-2.39-21.53-4.27-38.09z" fill="#fff" transform="translate(-135.03 -84.28)"/><path d="m271.89 243.45-7.31 4.33a.55.55 0 0 1 -.55 0l-7.72-4.34a.55.55 0 0 1 -.31-.44v-16.21a.55.55 0 0 1 .55-.55h15a.55.55 0 0 1 .55.55v16.21a.55.55 0 0 1 -.21.45z" fill="#d5e1ed" transform="translate(-135.03 -84.28)"/><path d="m271.89 243.45-7.31 4.33a.55.55 0 0 1 -.55 0l-7.72-4.34a.55.55 0 0 1 -.31-.44v-12.94a.55.55 0 0 1 .55-.55h15a.55.55 0 0 1 .55.55v12.94a.55.55 0 0 1 -.21.45z" fill="#b8ddff" transform="translate(-135.03 -84.28)"/><path d="m240.16 318.49v-162.39s1.37 2.52 6.4 7.62c6.28 6.37 11.67 16 11.67 16l-11.35-2.2 14.74 14.83-11.09 65.19-7.85 1.17 5 15.78z" fill="#8fa7d7" opacity=".5" transform="translate(-135.03 -84.28)"/><path d="m197.91 163.62c-6.28 6.37-11.67 16-11.67 16l11.35-2.2-14.74 14.83 23.78 122.94-2.32-159.19s-1.38 2.52-6.4 7.62z" fill="#8fa7d7" opacity=".5" transform="translate(-135.03 -84.28)"/><path d="m240.16 311.69-2.47-156.84s2.55 1.09 7.58 6.19c6.28 6.37 10.49 17.41 10.49 17.41l-11.35-2.2 14.74 14.83-10.56 67.07-5.41 1.25 4 8z" fill="#fff" transform="translate(-135.03 -84.28)"/><path d="m206.62 310.08v-155.24s-2.55 1.09-7.58 6.19c-6.28 6.37-10.49 17.41-10.49 17.41l11.35-2.2-14.74 14.83z" fill="#fff" transform="translate(-135.03 -84.28)"/><path d="m224.27 322.75a100.1 100.1 0 0 1 -17.58-1.51v-.91c.17 0 17.41 3.44 33.47 0v.91a75.35 75.35 0 0 1 -15.89 1.51z" fill="#38a595" transform="translate(-135.03 -84.28)"/><path d="m222.08 182.25a38.25 38.25 0 0 1 -15.46-3.17v-1.08c.15.08 16 7.6 31.42-.68v1.06a33 33 0 0 1 -15.96 3.87z" fill="#38a595" transform="translate(-135.03 -84.28)"/><path d="m149.52 255.48s11.81 2.27 17.95 8.41c0 0-15.3-7.65-17.95-8.41z" fill="#8fa7d7" opacity=".5" transform="translate(-135.03 -84.28)"/><path d="m180.83 308.11 2.48 3s-5 12.19-10.51 18.62l-4.49-6.24a53.1 53.1 0 0 0 12.52-15.38z" fill="#ffcca9" transform="translate(-135.03 -84.28)"/><path d="m163.5 255.48c.28.47 4.25 4.25 5.57 7.93l-6.23-7.08z" fill="#8fa7d7" opacity=".5" transform="translate(-135.03 -84.28)"/><path d="m176.06 214.49c0-.57-3.63 47-5.17 53.2l11.95 36.54s-6.31 14.26-18.12 21.91c0 0 7.56-1.13 19.46-17.56 0 0-6 17-14.36 24.18 0 0 13.22-7.84 17.1-31.64l-12.47-33.42s2.18-42.63 1.61-53.21z" fill="#8fa7d7" opacity=".5" transform="translate(-135.03 -84.28)"/><path d="m145.23 198.81-5.75 1.66.88 5.16 4.87-1.88z" fill="#8fa7d7" opacity=".5"/><path d="m278.88 247.42-4.37-35.81 1.36 36.95c-14.67 5.57-30.47 12.22-30.47 12.22s8.4-2.16 18.7-4.91 29.47-13.51 29.47-13.51c-3.91 1.14-9.13 2.98-14.69 5.06z" fill="#8fa7d7" opacity=".5" transform="translate(-135.03 -84.28)"/><path d="m299.16 212.5s9.23 24.86 9.33 41c0 6-3.39 11-5.86 12.75-24 17.48-53.69 18.1-53.69 18.1s-.24 4-.81 4.76c0 0 52.48-3.48 62.51-26.2a15.92 15.92 0 0 0 1.76-9.31c-.96-10.73-6.93-25.79-13.24-41.1z" fill="#8fa7d7" opacity=".1" transform="translate(-135.03 -84.28)"/><path d="m153 203.37c.37-1-15 38.07-14.82 52.11.28 29.48 22.06 66.68 26.54 70.65l-2.6 1.56s-28.9-42.93-27-72.26c.38-5.79 1.08-8.35 17.88-52.06z" fill="#8fa7d7" opacity=".1" transform="translate(-135.03 -84.28)"/><path d="m248.28 288.87c1.7-17.29-3.27-27.94-2.69-28.2 5.61-2.53 19.56-8 30.79-12.37l.48-25.46-57.39-2.32-1.3 84.77 57.18-2.29.35-18.5a215.55 215.55 0 0 1 -27.42 4.37z" fill="#ae376d" transform="translate(-135.03 -84.28)"/><path d="m122.54 137.79.02-1.03-15.56-.89-.03 1.29z" fill="#a1b5bf"/><circle cx="108.66" cy="138.87" fill="#a1b5bf" r=".32"/><circle cx="121.12" cy="139.39" fill="#a1b5bf" r=".2"/><g transform="translate(-135.03 -84.28)"><path d="m247.25 134.41c-1.63 5.89-4.52 10.41-5.78 10.06 0 0 .88-3.75 2.06-9.75 1.37-7 1.56-11.87 4.41-11.61 1.29.12.94 5.4-.69 11.3z" fill="#f0ba92"/><path d="m245.06 132c-1.49 5.93-2.33 12.85-3.59 12.5 0 0 1.25-5.35 2.43-11.35 1.37-7 1.23-9.37 4.07-9.1.03-.05-1.1.71-2.91 7.95z" fill="#d88d64" opacity=".6"/><path d="m197.27 134.41c1.63 5.89 4.35 10.44 5.6 10.1 0 0-1.33-4.86-2.12-10-1.09-7-1.32-11.69-4.17-11.43-1.29.15-.94 5.43.69 11.33z" fill="#f0ba92"/><path d="m198.58 131.33c1.49 5.93 3 13.53 4.29 13.18 0 0-1.33-6.11-2.51-12.11-1.37-7-1.14-8.61-4-8.35.01.01.42.07 2.22 7.28z" fill="#d88d64" opacity=".6"/><path d="m237.91 168.65s-2.16 5.69-15.75 5.69-15.54-5.34-15.54-5.34v-17.29h31.08z" fill="#f0ba92"/><path d="m237.71 156.1c-2.81 5.86-13.78 10.47-15.56 10.47s-11.1-3.54-15.54-10.37v-9h31.08z" fill="#d88d64" opacity=".6"/><path d="m241.47 144.47c-5.18 17-19.32 17.3-19.32 17.3s-14.94 0-19.4-17.71c-2.94-11.66-10-29.51-1.54-42.74 4.81-7.49 39.76-10.48 43.88 0s-.58 33.17-3.62 43.15z" fill="#ffcca9"/><path d="m229.75 143.84c.57.48-1.19 6.63-7.59 6.7-5.43.06-8.15-5.52-7.66-6.35.61-1 2.77-.33 7.44-.33s7.19-.54 7.81-.02z" fill="#fff"/><path d="m222.09 150.86a8.55 8.55 0 0 1 -7.24-4.39c-.49-.85-.91-1.93-.61-2.44.5-.84 1.66-.77 3.76-.64 1 .07 2.35.15 3.95.15 1.91 0 3.43-.09 4.66-.16 1.92-.11 2.89-.17 3.35.22.44.37.1 1.48-.06 1.94a8.07 8.07 0 0 1 -7.73 5.32zm-5.88-6.92a1.61 1.61 0 0 0 -1.43.41 3.73 3.73 0 0 0 .81 2.13 8 8 0 0 0 6.49 3.75h.08a7.43 7.43 0 0 0 6.43-3.46 4.86 4.86 0 0 0 .94-2.69 8.31 8.31 0 0 0 -2.88-.06c-1.24.07-2.77.16-4.7.16-1.62 0-2.93-.08-4-.15-.68-.03-1.26-.09-1.74-.09z" fill="#d3976e"/><path d="m222.18 138.64a3.13 3.13 0 0 1 -1.24-3.75 22.8 22.8 0 0 0 .66-5.06h.63a22.91 22.91 0 0 1 -.7 5.25 2.5 2.5 0 0 0 1 3z" fill="#d88d64"/><path d="m246.71 265.49-5.86.89c-7.48.65-10.25-5.11-16.86-4.26s-5.82 3.48-5.82 3.48c-4.38.12-3.23 6.18-3.23 6.18-2.07 3.08.08 6.64.08 6.64-1.51 2.13.5 5.36.5 5.36.56 3.51 4.82 6.41 9.4 6.9h.47.49.52.73.09l.62-.06c5.53-.75 20.76-6.92 20.76-6.92.24-11.86-1.89-18.21-1.89-18.21z" fill="#ffcca9"/><path d="m218.18 265.59s3.79.74 5.85.88a78.05 78.05 0 0 1 7.94 1.2s-6.17-.52-8-.63c-1.37-.04-6.37-1.39-5.79-1.45z" fill="#d88d64"/><path d="m219.36 273.46s-2.79-1.14-3.6-2.25a5.18 5.18 0 0 1 -.87-2.29 9.39 9.39 0 0 0 .06 2.86z" fill="#d88d64"/><path d="m219.47 280.07a24.19 24.19 0 0 1 -3.73-2 5.73 5.73 0 0 1 -1.63-2.37 6.86 6.86 0 0 0 .95 2.72z" fill="#d88d64"/><path d="m220 285.45a24.18 24.18 0 0 1 -3.73-2 6.65 6.65 0 0 1 -1.74-2.54 7.55 7.55 0 0 0 1.06 2.89z" fill="#d88d64"/><path d="m218.73 264s-.67 1.54.54 1.75l.2.28-1.29-.48a2 2 0 0 1 .55-1.55z" fill="#d88d64"/></g><g fill="#0e3368" opacity=".1"><path d="m197.75 193.59.28-17-1.42.28-.28 16.8c-7.69 1.32-9.23 15-9.49 32.39v1c0 3.56 1.89 4.44 4.31 4.82a21.38 21.38 0 0 0 2.66.22 1.45 1.45 0 0 0 2.77-.59v-1.18a1.45 1.45 0 0 0 -1.45-1.45 1.43 1.43 0 0 0 -1.41 1.25c-1.93-.1-4.3-.51-5.07-1.93s-.31-4.34-.25-6.33c.51-15.23 2.16-26.8 9.23-26.8s10.37 11.53 10.84 26.72c.06 1.91.4 4.71-.32 6.13s-2.38 1.86-4.11 2.09a1.45 1.45 0 0 0 -2.83.55l.14 1.18a1.45 1.45 0 0 0 2.84.2c2.77-.38 5.9-1.61 5.8-5.24v-1.43-.07c-.34-17.79-3.81-31.44-12.24-31.61z" transform="translate(-135.03 -84.28)"/><path d="m266.62 207.3c-1.43-33.63-17-41.27-17.7-41.59 0 0 .9.72 4.82 6.13 4.07 5.64 10.4 15.8 11.26 35.49a6.9 6.9 0 1 0 1.62-.03z" transform="translate(-135.03 -84.28)"/><path d="m140.59 200.17-.28 18.64-51.84 1.99-.08 6.55 55.46-2.35v-25.63z"/></g><path d="m208 223.46c-.35-17.92-3-31.52-11.59-31.52s-11.3 14-11.57 32.38v1c0 3.56 1.89 4.44 4.31 4.82a21.38 21.38 0 0 0 2.66.22 1.45 1.45 0 0 0 2.77-.59v-1.18a1.45 1.45 0 0 0 -1.45-1.45 1.43 1.43 0 0 0 -1.41 1.25c-1.93-.1-4.3-.51-5.07-1.93s-.31-4.34-.25-6.33c.51-15.23 3-26.68 10.05-26.68s9.53 11.42 10 26.62c.06 1.91.4 4.71-.32 6.13s-2.38 1.86-4.11 2.09a1.45 1.45 0 0 0 -2.83.55l.14 1.18a1.45 1.45 0 0 0 2.84.2c2.77-.38 5.9-1.61 5.8-5.24v-1.43z" fill="#383f47" transform="translate(-135.03 -84.28)"/><path d="m61.57 108.4h-1.42v-15.51l1.42-.28z" fill="#383f47"/><path d="m261.4 203.37c-.73-20.15-7.16-30.47-11.29-36.18-3.91-5.42-4.82-6.13-4.82-6.13.67.31 16.49 8 17.74 42.25z" fill="#383f47" transform="translate(-135.03 -84.28)"/><path d="m262.31 203.75c-1.1-20.95-6.1-30.12-10.22-35.83-3.91-5.42-6.82-6.89-6.82-6.89.67.31 16.51 8.68 17.76 42.9z" fill="#1a2026" transform="translate(-135.03 -84.28)"/><circle cx="127.3" cy="125.26" fill="#bcbcbc" r="6.93"/><path d="m262.33 216.66a7.13 7.13 0 1 1 7.13-7.13 7.14 7.14 0 0 1 -7.13 7.13zm0-13.86a6.73 6.73 0 1 0 6.73 6.73 6.73 6.73 0 0 0 -6.73-6.72z" fill="#444" transform="translate(-135.03 -84.28)"/><path d="m265.77 215.8-1.77-3.68 1.24-3.39 3.82-1.64s2.23 4.9-3.31 8.71z" fill="#fff" opacity=".3" transform="translate(-135.03 -84.28)"/><ellipse cx="127.29" cy="125.76" fill="#635b53" rx="3.11" ry="3.27"/><path d="m261.24 202.36.38 4.2-2.33 2.75-4.15.21s-.41-5.51 6.1-7.17z" fill="#fff" opacity=".4" transform="translate(-135.03 -84.28)"/><circle cx="127.3" cy="125.26" fill="#d3d3d3" r="2.77"/><path d="m262.33 212.5a3 3 0 1 1 3-3 3 3 0 0 1 -3 3zm0-5.54a2.57 2.57 0 1 0 2.57 2.57 2.57 2.57 0 0 0 -2.57-2.53z" fill="#a8a6a0" transform="translate(-135.03 -84.28)"/><circle cx="127.29" cy="125.58" fill="#bababa" r="1.09"/><circle cx="127.29" cy="125.26" fill="#fff" r="1.09"/><rect fill="#aaa9a2" height="2.8" rx=".45" width="1.2" x="57.19" y="143.44"/><rect fill="#aaa9a2" height="2.8" rx=".45" transform="matrix(.99554552 -.09428207 .09428207 .99554552 -155.72 -64.34)" width="1.2" x="200.21" y="227.72"/><path d="m261.62 207.16a2.41 2.41 0 0 0 -1.71 2l1.56.11.41-.41z" fill="#fff" opacity=".4" transform="translate(-135.03 -84.28)"/><path d="m263.81 211.57a2.41 2.41 0 0 0 .91-2.47l-1.5.43-.24.53z" fill="#fff" opacity=".4" transform="translate(-135.03 -84.28)"/><path d="m199.62 132.64s-3-11.84-3.52-17.82-1.16-14 5.58-16.75 4.67 5.61 4.67 5.61-5.33 3.58-6.4 12.56c-.58 4.88-.33 16.4-.33 16.4z" fill="#2a445d" transform="translate(-135.03 -84.28)"/><path d="m244.42 132.46s3.32-11.66 3.85-17.64 1.16-14-5.58-16.75-4.67 5.61-4.67 5.61 5.33 3.58 6.4 12.56c.58 4.88 0 16.22 0 16.22z" fill="#2a445d" transform="translate(-135.03 -84.28)"/><path d="m238.91 106.56s-8.21 1.31-13.71-1.28c-1.61-.76-9.43 2.57-13 1.9a14.07 14.07 0 0 1 -10-7.46c-.4-1.69-2-4.09 2.93-7.82 6.88-5.16 15.37-3.91 16.79-5.42a6 6 0 0 1 5.6-2.16c7.37.74 7.73 5.06 11.88 5.71 5.4.84 7.22 3 7.57 7.55.6 8.63-8.06 8.98-8.06 8.98z" fill="#2a445d" transform="translate(-135.03 -84.28)"/><path d="m223.28 85.33s-2.28 1.67-8.11 8.41-8.82 6.34-9.47 6.45c0 0 5 .86 10.3-6.1s7.28-8.76 7.28-8.76z" fill="#1f384c" transform="translate(-135.03 -84.28)"/><path d="m232.39 106.34s9.68 1.14 13.9-3.91c0 0-.89 5.29-13.68 4z" fill="#1f384c" transform="translate(-135.03 -84.28)"/><path d="m216.46 106.48c-11.41 1.59-14.69-7.82-14.63-7.65a13 13 0 0 0 9.66 8.77 15 15 0 0 0 3 .51h.87c10.91.1 19.74-11.44 19.74-11.44-7.41 6.4-13.98 8.89-18.64 9.81z" fill="#1f384c" transform="translate(-135.03 -84.28)"/><g clip-path="url(#a)" fill="#fff"><path d="m80.25 48.51 3.77-3.77v3.77z"/><path d="m75.4 48.51-1.97-1.97v-4.85l3.77-3.77h4.85l1.97 1.97v4.85l-3.77 3.77z"/><path d="m77.2 37.92-3.77 3.77v-3.77z"/></g><g clip-path="url(#b)" fill="#fff"><path d="m97.46 48.85 3.77-3.77v3.77z"/><path d="m92.61 48.85-1.97-1.98v-4.85l3.77-3.77h4.85l1.97 1.98v4.85l-3.77 3.77z"/><path d="m94.41 38.25-3.77 3.77v-3.77z"/></g><path d="m235.93 120.75a6.42 6.42 0 0 0 -4.68-1.14 1 1 0 0 1 -1.15-1.28 1 1 0 0 1 .68-.76 6.12 6.12 0 0 1 6.52 1.53 1 1 0 0 1 .24.95v.07a1 1 0 0 1 -1.61.63z" fill="#2a445d" transform="translate(-135.03 -84.28)"/><ellipse cx="95.94" cy="43.49" fill="#210601" rx="1.22" ry="1.55"/><ellipse cx="78.73" cy="43.37" fill="#210601" rx="1.22" ry="1.55"/><path d="m235.86 126.19a5.13 5.13 0 0 0 -10 .79 4.84 4.84 0 0 0 -7.07-.28 5.14 5.14 0 0 0 -9.95-.64c-8.57-3-10.68-3.44-11.25-3.33a.59.59 0 0 0 -.34.43l.44.18a.8.8 0 0 1 .09-.11c.74-.09 6.07 1.65 10.9 3.36a5.14 5.14 0 0 0 9.5 3.62 1.47 1.47 0 0 0 .44-.15 1.38 1.38 0 0 0 .4-.3 1.63 1.63 0 0 0 .4-.87 2.48 2.48 0 0 0 -.3-1.73 4.3 4.3 0 0 1 6.37.23 2.59 2.59 0 0 0 -.24 1.63 1.63 1.63 0 0 0 .4.87 1.38 1.38 0 0 0 .4.3 1.47 1.47 0 0 0 .44.15 5.14 5.14 0 0 0 9.5-3.62c4.9-1.74 10.22-3.5 10.83-3.36 0 0 .55-.23.55-.23-.14-.37-.37-.89-11.51 3.06zm-22.1 6.07a4.61 4.61 0 1 1 4.61-4.61 4.62 4.62 0 0 1 -4.61 4.61zm5.14-3.12a1 1 0 0 1 -.22.3.87.87 0 0 1 -.13.08 5.12 5.12 0 0 0 .35-1.72 1.06 1.06 0 0 1 .11.3 2.18 2.18 0 0 1 -.11 1.04zm7.15.43a1 1 0 0 1 -.22-.3 2.18 2.18 0 0 1 -.11-1 1.07 1.07 0 0 1 .11-.3 5.12 5.12 0 0 0 .35 1.72.87.87 0 0 1 -.13-.12zm4.92 2.81a4.61 4.61 0 1 1 4.61-4.61 4.62 4.62 0 0 1 -4.58 4.61z" fill="#302420" transform="translate(-135.03 -84.28)"/><path d="m208.8 120.62a6.42 6.42 0 0 1 4.68-1.14 1 1 0 0 0 1.15-1.28 1 1 0 0 0 -.68-.76 6.12 6.12 0 0 0 -6.52 1.53 1 1 0 0 0 -.24.95v.07a1 1 0 0 0 1.61.63z" fill="#2a445d" transform="translate(-135.03 -84.28)"/><path d="m186.22 224.12s-1.35-27.36 7.89-30.91a6.62 6.62 0 0 1 5.54.44c4.89 2.58 6.11 11.94 6.48 16.2.49 5.51 1.24 13.52.26 15.76 0 0 .34-12.72-1.79-22s-6.15-10.3-8.72-10.16-5.56 3-7.22 8.65-2.44 22.02-2.44 22.02z" fill="#1a2026" transform="translate(-135.03 -84.28)"/><path d="m184.89 226.14a4.56 4.56 0 0 0 3.1 3 4 4 0 0 0 3.74-.76 5.26 5.26 0 0 0 .09 2s-6.71.68-6.93-4.24z" fill="#1a2026" transform="translate(-135.03 -84.28)"/><path d="m208 224.27a4.56 4.56 0 0 1 -.39 2.1 4.14 4.14 0 0 1 -2.54 2.28c-2.23 1.18-3-.4-3-.4a6.64 6.64 0 0 1 .15 1.93s6.3-.18 5.78-5.91z" fill="#1a2026" transform="translate(-135.03 -84.28)"/><path d="m60.15 92.89 1.42-.28-.09.73-1.33.25z" fill="#1a2026"/></svg>