<svg viewBox="0 0 437.91 366.51" xmlns="http://www.w3.org/2000/svg"><rect fill="#263238" height="366.02" rx="11.55" width="255.05" x="79.54"/><path d="m87.46 26.11h238.96v305.67h-238.96z" fill="#fff"/><circle cx="207.07" cy="347.62" fill="#455a64" r="9.79"/><rect fill="#455a64" height="4.04" rx="1.22" width="76.82" x="168.66" y="10.54"/><path d="m114.23 50h190.37v32.14h-190.37z" fill="#199798"/><path d="m337.95 228.79s0-.18 0-.54v-1.63-6.68l.07.07c-23.67.11-102.09.19-195 .19l.26-.26v8.86l-.26-.26 138.15.11 41.61.08h11.3 2.95 1-1-2.91-11.24l-41.55.08-138.34.11h-.26v-.26c0-2.8 0-5.82 0-8.86v-.26h.27c92.93 0 171.35.08 195 .19v.07 6.73 1.61c0 .48-.05.65-.05.65z" fill="#263238" transform="translate(-28.69 -104.33)"/><ellipse cx="130.52" cy="103.59" fill="#263238" rx="19.14" ry=".26"/><path d="m335.09 364.23s0-.18 0-.54v-1.63-6.68l.07.07c-23.67.11-102.09.19-195 .19l.26-.26v8.86l-.26-.26 138.15.11 41.61.08h11.3 2.95 1-1-2.91-11.24l-41.55.08-138.34.11h-.26v-.26c0-2.8 0-5.82 0-8.86v-.26h.27c92.93 0 171.35.08 195 .19h.07v.07 6.73 1.61c-.11.48-.12.65-.12.65z" fill="#263238" transform="translate(-28.69 -104.33)"/><ellipse cx="132.24" cy="242.14" fill="#263238" rx="19.14" ry=".26"/><path d="m335.09 262.64s0-.18 0-.54v-1.63-6.68l.07.07c-23.74.14-102.16.14-195.08.14l.26-.26v8.86l-.26-.26 138.15.11 41.61.08h11.3 2.95 1-1-2.91-11.24l-41.55.08-138.34.11h-.26v-.26c0-2.8 0-5.82 0-8.86v-.26h.27c92.93 0 171.35.08 195 .19h.07v.07 6.73 1.61c-.03.54-.04.7-.04.7z" fill="#263238" transform="translate(-28.69 -104.33)"/><ellipse cx="130.52" cy="140.56" fill="#263238" rx="19.14" ry=".26"/><path d="m223 296.5s0-.21 0-.59v-1.71l-.06-6.56.11.11c-14.41.09-46.15.15-82.93.15l.26-.26v2.25q0 1.13 0 2.24v4.35l-.26-.26 58.86.11 17.61.08h4.78 1.25.44-.4-1.22-4.72l-17.55.08-59 .11h-.26v-.1c0-1.41 0-2.87 0-4.35q0-1.11 0-2.24v-2.25l.26-.26c36.79 0 68.52.06 82.93.15h.11v.11l-.06 6.62v1.68c-.15.36-.15.54-.15.54z" fill="#263238" transform="translate(-28.69 -104.33)"/><ellipse cx="130.52" cy="174.41" fill="#263238" rx="19.14" ry=".26"/><path d="m153.87 328.69a4.43 4.43 0 0 1 0-.66l-.05-1.8-.11-6.39.21.21-13.8.05.26-.26v1.16q0 .58 0 1.16 0 1.15 0 2.26v4.27l-.24-.24c4 0 7.42.07 9.87.12l2.87.06a8.78 8.78 0 0 1 1.07.06 5.93 5.93 0 0 1 -1 .06l-2.82.06c-2.43 0-5.91.1-10 .12h-.24v-.24c0-1.36 0-2.79 0-4.27q0-1.11 0-2.26 0-.57 0-1.16v-1.15l.26-.26 13.8.05h.21v.21c0 2.75-.07 5-.11 6.52l-.05 1.75a2.68 2.68 0 0 1 -.13.57z" fill="#263238" transform="translate(-28.69 -104.33)"/><path d="m172.1 328.69a4.44 4.44 0 0 1 0-.66l-.05-1.8-.11-6.39.16.16-13.8.05.26-.26v1.21q0 .58 0 1.16 0 1.15 0 2.26v4.27l-.24-.24c4 0 7.42.07 9.87.12l2.87.06a8.79 8.79 0 0 1 1.07.06 5.93 5.93 0 0 1 -1 .06l-2.82.06c-2.43 0-5.91.1-10 .12h-.24v-.24-4.27q0-1.11 0-2.26 0-.57 0-1.16v-1.15l.26-.26 13.8.05h.21v.21c0 2.75-.07 5-.11 6.52l-.05 1.75a2.69 2.69 0 0 1 -.08.57z" fill="#263238" transform="translate(-28.69 -104.33)"/><path d="m190.33 328.69a4.44 4.44 0 0 1 0-.66l-.05-1.8-.11-6.39.21.21-13.8.05.26-.26v1.16q0 .58 0 1.16 0 1.15 0 2.26v4.27l-.24-.24c4 0 7.42.07 9.87.12l2.87.06a8.79 8.79 0 0 1 1.07.06 5.93 5.93 0 0 1 -1 .06l-2.82.06c-2.43 0-5.91.1-10 .12h-.24v-.24-4.27q0-1.11 0-2.26 0-.57 0-1.16v-1.15l.26-.26 13.8.05h.21v.21c0 2.75-.07 5-.11 6.52l-.05 1.75a2.69 2.69 0 0 1 -.13.57z" fill="#263238" transform="translate(-28.69 -104.33)"/><path d="m208.55 328.69a4.43 4.43 0 0 1 0-.66l-.05-1.8-.11-6.39.21.21-13.8.05.26-.26v1.16q0 .58 0 1.16 0 1.15 0 2.26v4.27l-.24-.24c4 0 7.42.07 9.87.12l2.87.06a8.78 8.78 0 0 1 1.07.06 5.93 5.93 0 0 1 -1 .06l-2.82.06c-2.43 0-5.91.1-10 .12h-.24v-.24-4.27q0-1.11 0-2.26 0-.57 0-1.16v-1.15l.26-.26 13.8.05h.21v.21c0 2.75-.07 5-.11 6.52l-.05 1.75a2.69 2.69 0 0 1 -.13.57z" fill="#263238" transform="translate(-28.69 -104.33)"/><path d="m226.78 328.69a4.43 4.43 0 0 1 0-.66l-.05-1.8-.11-6.39.21.21-13.8.05.26-.26v1.16q0 .58 0 1.16 0 1.15 0 2.26v4.27l-.24-.24c4 0 7.42.07 9.87.12l2.87.06a8.78 8.78 0 0 1 1.07.06 5.93 5.93 0 0 1 -1 .06l-2.82.06c-2.43 0-5.91.1-10 .12h-.24v-.24c0-1.36 0-2.79 0-4.27q0-1.11 0-2.26 0-.57 0-1.16v-1.15l.26-.26 13.8.05h.14v.21c0 2.75-.07 5-.11 6.52l-.05 1.75a2.68 2.68 0 0 1 -.06.57z" fill="#263238" transform="translate(-28.69 -104.33)"/><path d="m245 328.69a4.44 4.44 0 0 1 0-.66l-.05-1.8-.11-6.39.16.16-13.8.05.26-.26v1.21q0 .58 0 1.16 0 1.15 0 2.26v4.27l-.24-.24c4 0 7.42.07 9.87.12l2.87.06a8.78 8.78 0 0 1 1.07.06 5.93 5.93 0 0 1 -1 .06l-2.82.06c-2.43 0-5.91.1-10 .12h-.21v-.24-4.27q0-1.11 0-2.26 0-.57 0-1.16v-1.15l.26-.26 13.8.05h.21v.21c0 2.75-.07 5-.11 6.52l-.05 1.75a2.69 2.69 0 0 1 -.11.57z" fill="#263238" transform="translate(-28.69 -104.33)"/><path d="m263.24 328.69a4.44 4.44 0 0 1 0-.66l-.05-1.8-.19-6.39.21.21-13.8.05.26-.26v1.16q0 .58 0 1.16 0 1.15 0 2.26v4.27l-.24-.24c4 0 7.42.07 9.87.12l2.87.06a8.79 8.79 0 0 1 1.07.06 5.93 5.93 0 0 1 -1 .06l-2.82.06c-2.43 0-5.91.1-10 .12h-.24v-.24-4.27q0-1.11 0-2.26 0-.57 0-1.16v-1.15l.26-.26 13.8.05h.21v.21c0 2.75-.07 5-.11 6.52l-.05 1.75a2.69 2.69 0 0 1 -.05.57z" fill="#263238" transform="translate(-28.69 -104.33)"/><path d="m281.46 328.69a4.45 4.45 0 0 1 0-.66l-.05-1.8-.11-6.39.21.21-13.8.05.26-.26v1.16q0 .58 0 1.16 0 1.15 0 2.26v4.27l-.24-.24c4 0 7.42.07 9.87.12l2.87.06a8.78 8.78 0 0 1 1.07.06 5.93 5.93 0 0 1 -1 .06l-2.82.06c-2.43 0-5.91.1-10 .12h-.24v-.24-4.27q0-1.11 0-2.26 0-.57 0-1.16v-1.15l.26-.26 13.8.05h.21v.21c0 2.75-.07 5-.11 6.52l-.05 1.75a2.69 2.69 0 0 1 -.13.57z" fill="#263238" transform="translate(-28.69 -104.33)"/><path d="m299.69 328.69a4.44 4.44 0 0 1 0-.66l-.05-1.8-.11-6.39.21.21-13.8.05.26-.26v1.16q0 .58 0 1.16 0 1.15 0 2.26v4.27l-.24-.24c4 0 7.42.07 9.87.12l2.87.06a8.78 8.78 0 0 1 1.07.06 5.93 5.93 0 0 1 -1 .06l-2.82.06c-2.43 0-5.91.1-10 .12h-.24v-.24-4.27q0-1.11 0-2.26 0-.57 0-1.16v-1.15l.26-.26 13.8.05h.21v.21c0 2.75-.07 5-.11 6.52l-.05 1.75a2.68 2.68 0 0 1 -.13.57z" fill="#263238" transform="translate(-28.69 -104.33)"/><path d="m317.92 328.69a4.44 4.44 0 0 1 0-.66l-.05-1.8-.11-6.39.21.21-13.8.05.26-.26v1.16q0 .58 0 1.16 0 1.15 0 2.26v4.27l-.24-.24c4 0 7.42.07 9.87.12l2.87.06a8.78 8.78 0 0 1 1.07.06 5.93 5.93 0 0 1 -1 .06l-2.82.06c-2.43 0-5.91.1-10 .12h-.24v-.24-4.27q0-1.11 0-2.26 0-.57 0-1.16v-1.15l.26-.26 13.8.05h.21v.21c0 2.75-.07 5-.11 6.52l-.1 1.74a2.69 2.69 0 0 1 -.08.58z" fill="#263238" transform="translate(-28.69 -104.33)"/><path d="m336.14 328.69a4.44 4.44 0 0 1 0-.66l-.05-1.8-.11-6.39.21.21-13.8.05.26-.26v1.16q0 .58 0 1.16 0 1.15 0 2.26v4.27l-.24-.24c4 0 7.42.07 9.87.12l2.87.06a8.79 8.79 0 0 1 1.07.06 5.93 5.93 0 0 1 -1 .06l-2.82.06c-2.43 0-5.91.1-10 .12h-.3v-.24-4.27q0-1.11 0-2.26 0-.57 0-1.16v-1.15l.26-.26 13.8.05h.21v.21c0 2.75-.07 5-.11 6.52l-.05 1.75a2.69 2.69 0 0 1 -.07.57z" fill="#263238" transform="translate(-28.69 -104.33)"/><ellipse cx="132.24" cy="206.61" fill="#263238" rx="19.14" ry=".26"/><path d="m333.71 296.5s0-.21 0-.59v-1.71l-.06-6.56.11.11c-14.41.09-46.15.15-82.93.15l.26-.26v2.25q0 1.13 0 2.24v4.35l-.26-.26 58.86.11 17.61.08h4.78 1.25.44-.4-1.22-4.72l-17.55.08-59 .11h-.26v-.1c0-1.41 0-2.87 0-4.35v-4.49l.26-.26c36.79 0 68.52.06 82.93.15h.11v.11l-.06 6.62v1.68c-.13.36-.15.54-.15.54z" fill="#263238" transform="translate(-28.69 -104.33)"/><ellipse cx="242.95" cy="174.41" fill="#263238" rx="19.14" ry=".26"/><path d="m272.65 410.33h-74a12.67 12.67 0 0 1 -12.65-12.67 12.67 12.67 0 0 1 12.64-12.66h74a12.67 12.67 0 0 1 12.67 12.67 12.67 12.67 0 0 1 -12.66 12.66z" fill="#199798" transform="translate(-28.69 -104.33)"/><path d="m225.77 399.79h-3.4l-.65 1.57h-1.72l3.27-7.33h1.67l3.28 7.33h-1.78zm-.53-1.29-1.16-2.81-1.16 2.81z" fill="#fff" transform="translate(-28.69 -104.33)"/><path d="m228.4 397.69a4 4 0 0 1 7-2.49l-1.09 1a2.36 2.36 0 0 0 -1.84-.86 2.34 2.34 0 1 0 0 4.69 2.34 2.34 0 0 0 1.84-.87l1.09 1a4 4 0 0 1 -7-2.47z" fill="#fff" transform="translate(-28.69 -104.33)"/><path d="m235.91 397.69a4 4 0 0 1 7-2.49l-1.09 1a2.36 2.36 0 0 0 -1.84-.86 2.34 2.34 0 0 0 0 4.69 2.34 2.34 0 0 0 1.84-.87l1.09 1a4 4 0 0 1 -7-2.47z" fill="#fff" transform="translate(-28.69 -104.33)"/><path d="m249.72 400v1.36h-5.72v-7.36h5.54v1.36h-3.85v1.64h3.4v1.32h-3.4v1.68h4z" fill="#fff" transform="translate(-28.69 -104.33)"/><path d="m257.42 396.69c0 1.63-1.22 2.65-3.18 2.65h-1.48v2h-1.7v-7.34h3.17c1.97 0 3.19 1 3.19 2.69zm-1.72 0a1.29 1.29 0 0 0 -1.56-1.28h-1.38v2.59h1.38c1.04 0 1.56-.51 1.56-1.31z" fill="#fff" transform="translate(-28.69 -104.33)"/><path d="m259.94 395.41h-2.34v-1.41h6.4v1.38h-2.34v5.95h-1.7v-5.95z" fill="#fff" transform="translate(-28.69 -104.33)"/><path d="m174.54 293.51 1.26-1.26 2.43 2.16 4.77-4.58 1.16 1.25-6.11 5.76z" fill="#fff"/><path d="m465.31 469.71c0 .14-97.75.26-218.3.26s-218.32-.12-218.32-.26 97.73-.26 218.32-.26 218.3.11 218.3.26z" fill="#263238" transform="translate(-28.69 -104.33)"/><path d="m423.31 444.41-1 16.68s16.61 6.64 16.72 9.75l-32.43-.84.53-26z" fill="#199798" transform="translate(-28.69 -104.33)"/><path d="m412.3 459.43a1.32 1.32 0 0 0 -1 1.49 1.27 1.27 0 0 0 1.47 1 1.4 1.4 0 0 0 1-1.58 1.32 1.32 0 0 0 -1.64-.83" fill="#fff" opacity=".6" transform="translate(-28.69 -104.33)"/><path d="m406.6 470 .16-2.62 31 1.77s1.43.66 1.24 1.68z" fill="#fff" opacity=".6" transform="translate(-28.69 -104.33)"/><path d="m422.82 460.94c0 .16-.8.21-1.59.7s-1.22 1.14-1.37 1.08a2.32 2.32 0 0 1 2.96-1.78z" fill="#263238" transform="translate(-28.69 -104.33)"/><path d="m426.18 462.43c0 .15-.66.41-1.21 1.06s-.73 1.36-.89 1.35a2 2 0 0 1 2.1-2.41z" fill="#263238" transform="translate(-28.69 -104.33)"/><path d="m428 466.55a2 2 0 0 1 1.32-2.67 11.77 11.77 0 0 0 -1.32 2.67z" fill="#263238" transform="translate(-28.69 -104.33)"/><path d="m422.63 457.11a12.9 12.9 0 0 0 -3.37.11 2.47 2.47 0 0 1 3.37-.11z" fill="#263238" transform="translate(-28.69 -104.33)"/><path d="m394.42 343.39-.18 2.97-15.93-.55.06-3.43z" opacity=".3"/><path d="m422.78 453.74a3 3 0 0 1 -1.62 0 7.29 7.29 0 0 1 -1.69-.57 7.62 7.62 0 0 1 -.92-.52 2 2 0 0 1 -.48-.39.69.69 0 0 1 -.05-.84.87.87 0 0 1 .7-.34 2.11 2.11 0 0 1 .61.1 5.83 5.83 0 0 1 1 .37 5.73 5.73 0 0 1 1.47 1 2.71 2.71 0 0 1 .92 1.34c-.07.05-.43-.45-1.18-1a6.47 6.47 0 0 0 -1.43-.85 6 6 0 0 0 -.92-.31.68.68 0 0 0 -.73 0v.18a1.62 1.62 0 0 0 .35.29 8.53 8.53 0 0 0 .85.51 9 9 0 0 0 1.55.64 11.17 11.17 0 0 1 1.57.39z" fill="#263238" transform="translate(-28.69 -104.33)"/><path d="m422.56 454a2.59 2.59 0 0 1 -.39-1.58 5.25 5.25 0 0 1 .71-2.75 1.34 1.34 0 0 1 1.06-.79.76.76 0 0 1 .67.47 2.2 2.2 0 0 1 .15.6 3.61 3.61 0 0 1 0 1.09 3.73 3.73 0 0 1 -.74 1.66 2.09 2.09 0 0 1 -1.33.94 13.28 13.28 0 0 0 1-1.17 3.74 3.74 0 0 0 .55-1.51 3.34 3.34 0 0 0 0-.94.59.59 0 0 0 -.29-.6.93.93 0 0 0 -.58.52 5.38 5.38 0 0 0 -.42.87 5.84 5.84 0 0 0 -.36 1.61c-.09.93.06 1.52-.03 1.58z" fill="#263238" transform="translate(-28.69 -104.33)"/><path d="m430 342.8-25.77 8.28c.31.23 4.78 29.19 4.78 29.19l-3.73 76.87 20.45.25 9.15-80.64z" fill="#263238" transform="translate(-28.69 -104.33)"/><path d="m394.07 444.35-.52 16.7s16.81 6.14 17 9.23l-32.43.16-.26-26.06z" fill="#199798" transform="translate(-28.69 -104.33)"/><path d="m383.51 459.7a1.32 1.32 0 0 0 -.91 1.52 1.27 1.27 0 0 0 1.49.91 1.4 1.4 0 0 0 1-1.61 1.32 1.32 0 0 0 -1.66-.78" fill="#fff" opacity=".6" transform="translate(-28.69 -104.33)"/><path d="m378.13 470.44.08-2.63 31.06.83s1.45.62 1.29 1.64z" fill="#fff" opacity=".6" transform="translate(-28.69 -104.33)"/><path d="m394.07 460.89c0 .16-.8.23-1.57.75s-1.19 1.18-1.33 1.12a2.32 2.32 0 0 1 2.9-1.87z" fill="#263238" transform="translate(-28.69 -104.33)"/><path d="m397.48 462.28c0 .15-.65.43-1.18 1.1s-.69 1.38-.84 1.38a2 2 0 0 1 2.02-2.48z" fill="#263238" transform="translate(-28.69 -104.33)"/><path d="m399.43 466.34a2 2 0 0 1 1.24-2.71 11.78 11.78 0 0 0 -1.24 2.71z" fill="#263238" transform="translate(-28.69 -104.33)"/><path d="m393.77 457.07a12.89 12.89 0 0 0 -3.36.21 2.47 2.47 0 0 1 3.36-.21z" fill="#263238" transform="translate(-28.69 -104.33)"/><path d="m365.27 343.33-.09 2.98-15.94-.07-.04-3.43z" opacity=".3"/><path d="m393.81 453.69a3 3 0 0 1 -1.62 0 7.29 7.29 0 0 1 -1.7-.51 7.61 7.61 0 0 1 -.93-.49 2 2 0 0 1 -.49-.38.69.69 0 0 1 -.08-.84.87.87 0 0 1 .69-.37 2.12 2.12 0 0 1 .61.08 5.83 5.83 0 0 1 1 .34 5.73 5.73 0 0 1 1.5 1 2.71 2.71 0 0 1 1 1.31c-.07.05-.44-.44-1.21-1a6.47 6.47 0 0 0 -1.45-.81 6 6 0 0 0 -.93-.28.68.68 0 0 0 -.72.06v.18a1.62 1.62 0 0 0 .36.28 8.53 8.53 0 0 0 .86.49 9 9 0 0 0 1.57.59 11.16 11.16 0 0 1 1.54.35z" fill="#263238" transform="translate(-28.69 -104.33)"/><path d="m393.6 453.92a2.59 2.59 0 0 1 -.44-1.57 5.26 5.26 0 0 1 .62-2.77 1.34 1.34 0 0 1 1-.82.76.76 0 0 1 .68.45 2.2 2.2 0 0 1 .17.59 3.61 3.61 0 0 1 0 1.09 3.73 3.73 0 0 1 -.69 1.68 2.09 2.09 0 0 1 -1.3 1 13.29 13.29 0 0 0 1-1.2 3.74 3.74 0 0 0 .51-1.53 3.34 3.34 0 0 0 0-.94.59.59 0 0 0 -.31-.59.93.93 0 0 0 -.57.53 5.39 5.39 0 0 0 -.4.88 5.84 5.84 0 0 0 -.31 1.62c-.04.97.13 1.56.04 1.58z" fill="#263238" transform="translate(-28.69 -104.33)"/><path d="m373.32 346.9c0 5.81 2.3 113.74 2.3 113.74l19.38-1.73 4-66.32 2.09-5.78 2.43-35.73z" fill="#263238" transform="translate(-28.69 -104.33)"/><path d="m414.45 207c.26.35 15.42 24.4 15.42 24.4l17-17.84 8.72 12.59s-18.23 25.73-20.91 26.66-11.3-.53-11.3-.53l-12-15.89z" fill="#ebebeb" transform="translate(-28.69 -104.33)"/><path d="m430 236.91a6.91 6.91 0 0 1 -.33-2.78 8.54 8.54 0 0 1 .19-2.78 6.92 6.92 0 0 1 .33 2.78 8.55 8.55 0 0 1 -.19 2.78z" fill="#263238" transform="translate(-28.69 -104.33)"/><path d="m375.9 189-2.62 6.46s-13.45 11.35-14.67 13.1 9.61 58.33 9.61 58.33-.7 83.13 0 83.13 10 3 29 1.57 22.53-3.32 22.53-3.32l-5.94-73.53-9.08-49.43-15.59-20.08z" fill="#ebebeb" transform="translate(-28.69 -104.33)"/><path d="m406.54 217.07s-2-9.59-1.83-9.89-4.48-11.63-4.48-11.63-1.56-5.19-1.56-5.17-21.2-3.59-21.2-3.59l-1 3.2 28.26 35.71 2.88 15.3 3-4.18z" fill="#199798" transform="translate(-28.69 -104.33)"/><path d="m425.45 289.25-4.6-55.32-3.77-21.58a23.37 23.37 0 0 0 -3.39-8.64l-11-6.37a47.65 47.65 0 0 1 -3.15-4.21l5.21 13.31 1.83 10.63 1.14 24.39 6 32.74 5.87 72 12.78-2.49z" fill="#ebebeb" transform="translate(-28.69 -104.33)"/><path d="m379.44 120.49 2.47-18.15-7.95-9.33-3.15-4.21 4.89 14.05z" fill="#ebebeb"/><path d="m366.88 154.36 19.21-27.33 33.43 10.12-25.29 32.71-31.4-10.21z" fill="#199798"/><circle cx="408.93" cy="135.88" fill="#263238" r=".83"/><circle cx="395.56" cy="132.16" fill="#263238" r=".83"/><ellipse cx="410.43" cy="217.72" fill="#263238" rx=".1" ry="4.06" transform="matrix(.96766516 -.25223825 .25223825 .96766516 -70.33 6.23)"/><path d="m415.79 226.05a4.15 4.15 0 0 1 -.3 2.3 2.83 2.83 0 0 1 -1.73 1.59 3.16 3.16 0 0 1 -3.05-.65 8 8 0 0 1 -1.91-5.77 3.5 3.5 0 0 1 2.19-3 3.17 3.17 0 0 1 3.62 1.55" fill="#e0e0e0" transform="translate(-28.69 -104.33)"/><path d="m414.6 222.1a2.58 2.58 0 0 0 -.51-.72 3.4 3.4 0 0 0 -.82-.64 3 3 0 0 0 -1.33-.38 3 3 0 0 0 -.81.08 2.43 2.43 0 0 0 -.82.33 3.46 3.46 0 0 0 -1.23 1.48 4.52 4.52 0 0 0 -.41 2.09 8.27 8.27 0 0 0 .41 2.24 6.28 6.28 0 0 0 1.78 3 3 3 0 0 0 1.48.61 3.46 3.46 0 0 0 1.46-.13 2.17 2.17 0 0 0 .94-.51 3.41 3.41 0 0 0 .62-.72 3.87 3.87 0 0 0 .5-1.43 3.71 3.71 0 0 0 0-1 2.35 2.35 0 0 0 0-.25.24.24 0 0 0 0-.08 5.2 5.2 0 0 1 -.05 1.29 3.9 3.9 0 0 1 -.52 1.38 3.32 3.32 0 0 1 -.6.68 2 2 0 0 1 -.87.46 3.07 3.07 0 0 1 -2.76-.47 6.17 6.17 0 0 1 -1.71-2.87 5.83 5.83 0 0 1 0-4.2 3.31 3.31 0 0 1 1.16-1.42 2.29 2.29 0 0 1 .77-.32 2.88 2.88 0 0 1 2.05.25 3.48 3.48 0 0 1 .82.6 7.14 7.14 0 0 1 .45.65z" fill="#263238" transform="translate(-28.69 -104.33)"/><path d="m416.68 225.9a4.15 4.15 0 0 1 -.3 2.3 2.83 2.83 0 0 1 -1.73 1.59 3.16 3.16 0 0 1 -3.05-.65 8 8 0 0 1 -1.91-5.77 3.5 3.5 0 0 1 2.19-3 3.17 3.17 0 0 1 3.62 1.55" fill="#e0e0e0" transform="translate(-28.69 -104.33)"/><path d="m415.49 221.94a2.58 2.58 0 0 0 -.51-.72 3.41 3.41 0 0 0 -.82-.64 3 3 0 0 0 -1.33-.38 3 3 0 0 0 -.81.08 2.43 2.43 0 0 0 -.82.33 3.46 3.46 0 0 0 -1.2 1.49 4.52 4.52 0 0 0 -.41 2.09 8.28 8.28 0 0 0 .41 2.24 6.29 6.29 0 0 0 1.78 3 3 3 0 0 0 1.48.61 3.46 3.46 0 0 0 1.46-.13 2.17 2.17 0 0 0 .94-.51 3.41 3.41 0 0 0 .62-.72 3.87 3.87 0 0 0 .5-1.43 3.72 3.72 0 0 0 0-1 2.4 2.4 0 0 0 0-.25.24.24 0 0 0 0-.08 5.2 5.2 0 0 1 -.05 1.29 3.89 3.89 0 0 1 -.52 1.38 3.32 3.32 0 0 1 -.6.68 2 2 0 0 1 -.87.46 3.07 3.07 0 0 1 -2.76-.47 6.17 6.17 0 0 1 -1.71-2.87 5.82 5.82 0 0 1 0-4.2 3.31 3.31 0 0 1 1.16-1.42 2.28 2.28 0 0 1 .77-.32 2.88 2.88 0 0 1 2.06.25 3.49 3.49 0 0 1 .82.6 7.21 7.21 0 0 1 .41.64z" fill="#263238" transform="translate(-28.69 -104.33)"/><path d="m413.95 221.9a2 2 0 0 1 2.29.63 3.41 3.41 0 0 1 .63 2.43 3.11 3.11 0 0 1 -.33 1.25 1.69 1.69 0 0 1 -1 .83 2 2 0 0 1 -1.77-.51 3.57 3.57 0 0 1 -1.27-2.71 1.65 1.65 0 0 1 1-1.66" fill="#e0e0e0" transform="translate(-28.69 -104.33)"/><path d="m413.5 222.15a.37.37 0 0 0 -.15 0 1.07 1.07 0 0 0 -.37.24 2 2 0 0 0 -.52 1.5 3.63 3.63 0 0 0 .82 2.21 3.06 3.06 0 0 0 1.12.88 1.66 1.66 0 0 0 1.52 0 2.06 2.06 0 0 0 .9-1.23 4.32 4.32 0 0 0 .14-1.41 3 3 0 0 0 -1-2.15 2.06 2.06 0 0 0 -1.51-.49 1.46 1.46 0 0 0 -.42.11l-.13.08a2.86 2.86 0 0 1 .56-.11 2 2 0 0 1 1.41.52 2.84 2.84 0 0 1 .86 2 4.22 4.22 0 0 1 -.15 1.34 1.88 1.88 0 0 1 -.81 1.12 1.47 1.47 0 0 1 -1.35 0 2.91 2.91 0 0 1 -1.05-.81 3.55 3.55 0 0 1 -.82-2.1 2 2 0 0 1 .43-1.44 1.62 1.62 0 0 1 .52-.26z" fill="#263238" transform="translate(-28.69 -104.33)"/><path d="m413.67 228.49a2.1 2.1 0 0 0 .13-.32 1.43 1.43 0 0 1 .53-.57 3.6 3.6 0 0 1 .75-.32.7.7 0 0 0 .32-.15.64.64 0 0 0 -.36 0 2.27 2.27 0 0 0 -.82.29 1.27 1.27 0 0 0 -.55.69.42.42 0 0 0 0 .38z" fill="#263238" transform="translate(-28.69 -104.33)"/><path d="m411.65 222a.54.54 0 0 0 .3.21 1.91 1.91 0 0 0 1.71-.13.54.54 0 0 0 .27-.25 2.88 2.88 0 0 1 -2.28.17z" fill="#263238" transform="translate(-28.69 -104.33)"/><path d="m396.21 235.44c-1 .29-2.14-.45-3.12-.08a1.47 1.47 0 1 0 1.13 2.7c1-.46 1.23-1.9 2.19-2.47" fill="#263238" transform="translate(-28.69 -104.33)"/><path d="m388 239.05a6.28 6.28 0 0 0 .91-.38l-.17-.32a4.18 4.18 0 0 1 -3.29.4 6.07 6.07 0 0 1 -3.26-3.37v-.07c-.36-.72-5.3-15.46-6.21-18.27a5 5 0 0 1 2.39-6.31c.15-.08 3.46-1.8 6.87 2.39 3.57 4.39 9.81 13.05 10.38 14.12l.27.48c.79 1.35 2.44 4.15 1 6.54-1.62 2.67-3.63 2.49-3.72 2.48v.36c.09 0 2.32.22 4.07-2.65 1.56-2.58-.16-5.51-1-6.91l-.27-.46c-.58-1.08-6.84-9.78-10.42-14.18s-7.28-2.51-7.32-2.49a5.47 5.47 0 0 0 -2.57 6.74c.75 2.31 5.86 17.56 6.23 18.32v.07a6.4 6.4 0 0 0 3.47 3.55 4.18 4.18 0 0 0 2.64-.04z" fill="#263238" transform="translate(-28.69 -104.33)"/><path d="m376.68 219.92a6.79 6.79 0 0 1 .16-2 6.17 6.17 0 0 1 2.77-3.69 6.84 6.84 0 0 1 4.56-.85 8.12 8.12 0 0 1 1.88.6l-.11-.08a3.16 3.16 0 0 0 -.35-.19 5.49 5.49 0 0 0 -1.39-.46 6.76 6.76 0 0 0 -4.69.82 6.21 6.21 0 0 0 -1.93 1.83 6 6 0 0 0 -.87 2 4.82 4.82 0 0 0 -.12 1.46 2.79 2.79 0 0 0 .05.39.38.38 0 0 0 .04.17z" fill="#263238" transform="translate(-28.69 -104.33)"/><path d="m344.59 91.15 16.58 20.54 14.85 9.33-28.82-36.33z" fill="#ebebeb"/><path d="m358.61 208.58s-3.48 5.48-4 11.08c-.22 2.2 5.24 43.32 5.86 45.17s7.86 6.47 10 7.4 28.52 9.71 39.31 9.56l2.31-20.35-27.75-4.62s-3.24-3.08-4.93-3.7l-2.31-22.66-3.39-18.19s-9.71-5.99-15.1-3.69z" fill="#ebebeb" transform="translate(-28.69 -104.33)"/><ellipse cx="417.89" cy="219.71" fill="#263238" rx=".26" ry="13.84" transform="matrix(.97491681 -.22256955 .22256955 .97491681 -67.11 -5.81)"/><path d="m375.72 228.44s0 .14.09.42l.21 1.26.77 4.86 2.78 18.1-.11-.14a11.26 11.26 0 0 1 2.58 1.64c.82.64 1.62 1.34 2.42 2.09l-.1-.05 27.76 4.58h.23v.23l-2.35 20.38v.23h-.23a72.24 72.24 0 0 1 -15.27-2.38c-6.4-1.53-12.56-3.36-18.47-5.25-1.47-.48-2.93-1-4.37-1.47a18.48 18.48 0 0 1 -4.09-2c-1.28-.78-2.51-1.6-3.7-2.46a17.79 17.79 0 0 1 -3.28-2.9 2.13 2.13 0 0 1 -.47-1c-.09-.36-.14-.71-.2-1.06l-.33-2.07-.6-4.06-1.08-7.77c-.68-5-1.29-9.7-1.82-14s-1-8.14-1.34-11.55c-.08-.85-.17-1.67-.23-2.47a9.33 9.33 0 0 1 0-2.31 27.28 27.28 0 0 1 .94-3.91 30.7 30.7 0 0 1 2.15-5.12c.3-.56.55-1 .72-1.25a4.32 4.32 0 0 1 .28-.41l-.23.43c-.16.28-.39.71-.67 1.27a32.84 32.84 0 0 0 -2 5.13 27.6 27.6 0 0 0 -.89 3.89 9.12 9.12 0 0 0 0 2.25c.06.79.16 1.61.25 2.46.37 3.4.86 7.26 1.41 11.53l1.88 14 1.11 7.77.61 4.06.34 2.06c.06.35.12.69.19 1a1.67 1.67 0 0 0 .39.87 17.54 17.54 0 0 0 3.18 2.8c1.17.85 2.4 1.66 3.67 2.43a18 18 0 0 0 4 2c1.43.51 2.89 1 4.36 1.46 5.9 1.88 12.05 3.7 18.43 5.23a72.19 72.19 0 0 0 15.14 2.37l-.25.23 2.33-20.35.2.26-27.76-4.75h-.06c-.78-.74-1.58-1.44-2.39-2.08a11 11 0 0 0 -2.48-1.6h-.1v-.1l-2.67-18.22-.68-4.88-.16-1.26c-.04-.27-.04-.42-.04-.42z" fill="#263238" transform="translate(-28.69 -104.33)"/><path d="m374.08 222.33a17 17 0 0 1 -1.28-2.47 27.61 27.61 0 0 0 -3.46-5.65 12.4 12.4 0 0 0 -5.29-3.78 20 20 0 0 0 -2.68-.58 1.85 1.85 0 0 1 .75-.08 7.54 7.54 0 0 1 2 .31 11.76 11.76 0 0 1 5.58 3.8 23.14 23.14 0 0 1 3.4 5.84 13.12 13.12 0 0 1 .98 2.61z" fill="#263238" transform="translate(-28.69 -104.33)"/><path d="m369.64 256.89a10.61 10.61 0 0 1 9.62-3.69 16.73 16.73 0 0 0 -9.62 3.69z" fill="#263238" transform="translate(-28.69 -104.33)"/><path d="m372.79 260.11a10.33 10.33 0 0 1 6.89-7 17 17 0 0 0 -6.89 7z" fill="#263238" transform="translate(-28.69 -104.33)"/><path d="m404.71 225.34a7.77 7.77 0 0 1 -1.15-.62l-3.12-1.87-10.72-6.62-5-6.15c-4.59-5.68-8.7-10.83-11.54-14.43l-.07-.08v-.09l2-4.71.56-1.26a.24.24 0 1 1 .09 0l-.47 1.3-1.85 4.77v-.18c2.93 3.54 7.09 8.65 11.67 14.33l5 6.17-.06-.05 10.62 6.77 3 2a7.77 7.77 0 0 1 1.04.72z" fill="#263238" transform="translate(-28.69 -104.33)"/><path d="m407.13 229.2a7 7 0 0 1 .1-1.34l.46-3.64c.41-3.09 1-7.38 1.73-12.2v.16l-1-1.83c-2.54-4.72-4.81-9-6.43-12.13l-1.9-3.7a8.59 8.59 0 0 1 -.63-1.39 8.59 8.59 0 0 1 .81 1.3l2 3.62c1.7 3.07 4 7.33 6.57 12.05l1 1.83v.08.08c-.72 4.82-1.39 9.11-1.89 12.18l-.62 3.62a7.06 7.06 0 0 1 -.2 1.31z" fill="#263238" transform="translate(-28.69 -104.33)"/><path d="m376.72 211.39.86-.52-.86.51a51.29 51.29 0 0 1 -3.73-7l-.19-.38c-1-2.45-2.16-5.22-1.68-7.91v-.09a5.27 5.27 0 0 1 1.82-3l.28-.23h.83v1.55l.18.22-.18.16v.07h-.05a3.17 3.17 0 0 0 -.89 1.64v.06c-.36 2.09.66 4.56 1.56 6.74l.18.43a49.94 49.94 0 0 0 3.59 6.68z" fill="#263238" transform="translate(-28.69 -104.33)"/><path d="m413.29 272.34a4.17 4.17 0 0 1 .14.75l.29 2.16c.25 1.88.57 4.6 1 8 .77 6.73 1.72 16 2.59 26.34s1.49 19.64 1.87 26.4c.19 3.38.32 6.12.39 8l.07 2.18a4.16 4.16 0 0 1 0 .76 4.19 4.19 0 0 1 -.09-.76l-.22-2.17-.56-8c-.47-6.75-1.15-16.08-2-26.38s-1.77-19.62-2.46-26.37l-.79-8-.2-2.17a4.19 4.19 0 0 1 -.03-.74z" fill="#263238" transform="translate(-28.69 -104.33)"/><path d="m400.46 295.8a3.28 3.28 0 0 1 -.68.65c-.46.39-1.13.94-2 1.61a60.53 60.53 0 0 1 -6.94 4.77 36.94 36.94 0 0 1 -4.17 2.05 25.48 25.48 0 0 1 -3.62 1.16 17 17 0 0 1 -2.52.43 3.25 3.25 0 0 1 -.94 0c0-.1 1.31-.24 3.37-.82a30 30 0 0 0 3.53-1.25 42.71 42.71 0 0 0 4.1-2.06c2.82-1.63 5.23-3.37 7-4.61a25.33 25.33 0 0 1 2.87-1.93z" fill="#263238" transform="translate(-28.69 -104.33)"/><path d="m402 299.7a3.48 3.48 0 0 1 -.54.81 20.27 20.27 0 0 1 -1.73 2 28.36 28.36 0 0 1 -15.21 8.1 20.25 20.25 0 0 1 -2.63.32 3.48 3.48 0 0 1 -1 0c0-.09 1.37-.2 3.52-.67a31.47 31.47 0 0 0 15-8c1.65-1.54 2.51-2.62 2.59-2.56z" fill="#263238" transform="translate(-28.69 -104.33)"/><ellipse cx="380.34" cy="308.51" fill="#263238" rx=".26" ry="2.78" transform="matrix(.99488071 -.1010563 .1010563 .99488071 -57.9 -64.35)"/><g transform="translate(-28.69 -104.33)"><path d="m378.22 178.74a2 2 0 0 1 -1.73-1.17 6.76 6.76 0 0 1 -.57-2.24l-1.41-10.22a52.35 52.35 0 0 1 -.71-8.71 18.63 18.63 0 0 1 2.57-8c1.54-3 7.78-8.19 18.14-5.26" fill="#263238"/><path d="m377.69 166.48c-.14-.06-5.53-1.53-5.26 3.95s5.71 4.07 5.71 3.91-.45-7.86-.45-7.86z" fill="#ffbe9d"/><path d="m376.37 172.35a1.65 1.65 0 0 0 -.25.15 1 1 0 0 1 -.71.05 2.36 2.36 0 0 1 -1.2-2.06 3.15 3.15 0 0 1 .2-1.38 1.1 1.1 0 0 1 .68-.77.49.49 0 0 1 .58.23 2.64 2.64 0 0 1 .08.27.27.27 0 0 0 .06-.32.61.61 0 0 0 -.23-.33.72.72 0 0 0 -.53-.11 1.34 1.34 0 0 0 -1 .9 3.24 3.24 0 0 0 -.25 1.54 2.48 2.48 0 0 0 1.51 2.29 1 1 0 0 0 .86-.19.33.33 0 0 0 .2-.27z" fill="#eb996e"/><path d="m405.82 176.66c0-3.87-.72-11.83-1.43-19a14.93 14.93 0 0 0 -15.13-13.45h-.77c-8.32.64-12.43 8.07-11.56 16.37l1.17 26.42 19.9 10.94-.07-11.88s7.94-1.39 7.89-9.4z" fill="#ffbe9d"/><path d="m397.89 186.06a18.63 18.63 0 0 1 -10.5-2.77s2.52 5.81 10.5 4.94v-2.16z" fill="#eb996e"/><path d="m401.74 162.88a1.14 1.14 0 0 1 -1.08 1.17 1.09 1.09 0 0 1 -1.2-1 1.14 1.14 0 0 1 1.08-1.17 1.1 1.1 0 0 1 1.2 1z" fill="#263238"/><path d="m402.85 161.16c-.14.15-1-.47-2.25-.45s-2.12.66-2.26.51a.77.77 0 0 1 .46-.63 3.14 3.14 0 0 1 1.8-.59 3 3 0 0 1 1.79.54.72.72 0 0 1 .46.62z" fill="#263238"/><path d="m389.78 163.13a1.14 1.14 0 0 1 -1.08 1.17 1.09 1.09 0 0 1 -1.2-1 1.14 1.14 0 0 1 1.08-1.17 1.09 1.09 0 0 1 1.2 1z" fill="#263238"/><path d="m390.58 161c-.12.17-1.06-.36-2.28-.2s-2 .88-2.19.75a.77.77 0 0 1 .39-.68 3.14 3.14 0 0 1 1.73-.78 3 3 0 0 1 1.84.34.73.73 0 0 1 .51.57z" fill="#263238"/><path d="m395.28 171.08a8.13 8.13 0 0 1 2-.4.69.69 0 0 0 .66-.32 1.6 1.6 0 0 0 -.23-.93l-1-2.38a41.16 41.16 0 0 1 -2.2-6.22 41.17 41.17 0 0 1 2.7 6l.93 2.39a1.82 1.82 0 0 1 .19 1.23.79.79 0 0 1 -.51.47 2.13 2.13 0 0 1 -.53.08 8 8 0 0 1 -2.01.08z" fill="#263238"/><path d="m391.67 172c.2 0 .23 1.32 1.39 2.25s2.58.75 2.59.94a1.08 1.08 0 0 1 -.91.29 3.33 3.33 0 0 1 -2.16-.71 2.9 2.9 0 0 1 -1.08-1.89.92.92 0 0 1 .17-.88z" fill="#263238"/><path d="m390.65 155.73c-.12.34-1.35.2-2.79.4s-2.6.62-2.8.32a.9.9 0 0 1 .57-.79 4.9 4.9 0 0 1 4.26-.55.9.9 0 0 1 .76.62z" fill="#263238"/><path d="m402.22 158c-.21.28-1.06 0-2.08 0s-1.88.22-2.08-.07a.67.67 0 0 1 .41-.69 3 3 0 0 1 3.36 0 .67.67 0 0 1 .39.76z" fill="#263238"/><path d="m395.12 143.33c-2.83-1.11-5.7-.53-8.71-.08a13.75 13.75 0 0 0 -6.41 2.55 12.32 12.32 0 0 0 -4.71 9.61 35.27 35.27 0 0 0 1.18 10.79l.3-.07a5.22 5.22 0 0 0 0 2.79 1.8 1.8 0 0 0 2.21 1.21c1-.44 1-1.83.95-2.93a78.73 78.73 0 0 1 0-11.12c.16-2.77 1.73-6.15 3.89-7.47 3.93-2.61 9-.48 10.78-.18 2.66-2.28 5.15-.5 6.78 1.48-.68-2.98-3.38-5.47-6.26-6.58z" fill="#263238"/><path d="m394.52 148.43c1.75 0 3.15-1.18 5.11-.86 1.18.19 2.37 2.12 3.4 4.52a3.47 3.47 0 0 0 -1-6.35 3.16 3.16 0 0 0 1.56.51 1.09 1.09 0 0 0 1.1-1 1.46 1.46 0 0 0 -.65-1 8.54 8.54 0 0 0 -12 1.38" fill="#263238"/><path d="m403.55 145.12c0 .07-.57-.3-1.51-.6a5.84 5.84 0 0 0 -6.72 2.33c-.56.82-.74 1.43-.82 1.41a2.84 2.84 0 0 1 .51-1.6 5.7 5.7 0 0 1 7.16-2.48 2.84 2.84 0 0 1 1.38.94z" fill="#455a64"/><path d="m403.18 151.15a6.18 6.18 0 0 0 0-1.86 3.92 3.92 0 0 0 -.88-1.75 4.14 4.14 0 0 0 -2-1.22 5.47 5.47 0 0 0 -4.27.74c-1 .62-1.48 1.18-1.54 1.12a3.69 3.69 0 0 1 1.34-1.43 6 6 0 0 1 1.94-.93 5.17 5.17 0 0 1 2.66 0 4.41 4.41 0 0 1 2.27 1.41 4 4 0 0 1 .87 2 2.4 2.4 0 0 1 -.39 1.92z" fill="#455a64"/><path d="m374.69 164.33a2 2 0 0 1 -.21-.73 11.46 11.46 0 0 1 -.18-2.06 13.8 13.8 0 0 1 6.27-11.6 11.47 11.47 0 0 1 1.82-1 2 2 0 0 1 .73-.23c0 .08-1 .5-2.34 1.51a14.65 14.65 0 0 0 -6.11 11.3c-.09 1.74.11 2.8.02 2.81z" fill="#455a64"/><path d="m375.91 165.34a12.33 12.33 0 0 1 3.69-11.09 25.32 25.32 0 0 0 -2.75 5.25 25.32 25.32 0 0 0 -.94 5.84z" fill="#455a64"/><path d="m466.42 211.12a1.91 1.91 0 0 0 -1.39-.75l.23-.35a1.68 1.68 0 0 0 .12-1.67l-.13-.25a2.77 2.77 0 0 0 -1.34-1s.85-1.15.64-1.73a2.75 2.75 0 0 0 -2.62-1.54 40.65 40.65 0 0 0 -5.45 1.63 1.21 1.21 0 0 1 -1.6-.89 17.43 17.43 0 0 0 -1.75-5c-1-1.67-2.17-1.74-2.88-1.58a.56.56 0 0 0 -.4.76 30.27 30.27 0 0 1 1.27 3.52c.19.9-.46 7.41-.46 7.41l-3.3 4.45 7.5 10.83 3.3-4.9 7.08-3.12s1.34-1.68 1.2-2.26a1.77 1.77 0 0 0 -.7-.93l.87-1.23a3.83 3.83 0 0 0 -.19-1.4z" fill="#ffbe9d"/><path d="m464.54 207.29-.15.1-.43.25-1.61.89-2.4 1.31c-.46.24-.92.52-1.45.74a1.92 1.92 0 0 1 -1.74 0 1.3 1.3 0 0 1 -.53-.75 1.85 1.85 0 0 1 0-.89 2.5 2.5 0 0 1 .91-1.36 9.83 9.83 0 0 1 1.23-.81l1.09-.65 1.59-.93.44-.25.16-.08-.14.1-.42.27-1.56 1-1.08.67a10 10 0 0 0 -1.2.81 2.36 2.36 0 0 0 -.85 1.28 1.37 1.37 0 0 0 .48 1.46 1.4 1.4 0 0 0 .79.21 2.3 2.3 0 0 0 .8-.18c.51-.21 1-.49 1.43-.72l2.42-1.27 1.64-.85.45-.22z" fill="#eb996e"/><path d="m465.5 210.54a1.77 1.77 0 0 1 -.34.2l-1 .48c-.81.4-1.94.91-3.22 1.42a8.93 8.93 0 0 1 -1 .34 1.89 1.89 0 0 1 -1 0 1.47 1.47 0 0 1 -1.06-1.16 1.45 1.45 0 0 1 .25-1 1.26 1.26 0 0 1 .2-.22l.09-.06s-.1.1-.23.31a1.44 1.44 0 0 0 -.19 1 1.36 1.36 0 0 0 1 1 1.76 1.76 0 0 0 .88 0 9.38 9.38 0 0 0 .93-.34c1.27-.51 2.41-1 3.23-1.37l1-.44a1.8 1.8 0 0 1 .46-.16z" fill="#eb996e"/><path d="m465.87 213.62a1.52 1.52 0 0 1 -.34.13l-.94.3-3.12.94a8.5 8.5 0 0 1 -.91.24 1.65 1.65 0 0 1 -.89-.07 1 1 0 0 1 -.58-.57 1.1 1.1 0 0 1 0-.71 1.5 1.5 0 0 1 .64-.76 1 1 0 0 1 .33-.15s-.11.07-.29.21a1.51 1.51 0 0 0 -.57.75 1 1 0 0 0 0 .63.84.84 0 0 0 .51.48 1.52 1.52 0 0 0 .81 0 9 9 0 0 0 .89-.24l3.13-.89 1-.25a1.54 1.54 0 0 1 .33-.04z" fill="#eb996e"/><path d="m465.91 216.44a6.84 6.84 0 0 1 -1.06.11l-2.58.14h-.73a3 3 0 0 1 -.7 0 1 1 0 0 1 -.58-.31.66.66 0 0 1 -.15-.56.94.94 0 0 1 .5-.62.49.49 0 0 1 .28-.08s-.1 0-.25.13a.91.91 0 0 0 -.42.59.54.54 0 0 0 .14.45.88.88 0 0 0 .5.25 3 3 0 0 0 .67 0h.73l2.58-.09a6.83 6.83 0 0 1 1.07-.01z" fill="#eb996e"/><path d="m459.13 214a6.36 6.36 0 0 0 -3.66-.4 4.09 4.09 0 0 1 3.66.4z" fill="#eb996e"/><path d="m411.94 262.63 1.55-.41s.55-2.61 1.23-3.16 7.56-3.68 9.07-4.5 7.41-3.51 8.15-2.08c.84 1.62-1.56 2.95-2.87 3.56s-5 2.06-4.27 3 9.06.49 9.06.49l1-1.4s1.83 1.73 1.62 3.24a6.6 6.6 0 0 1 -.82 2.47h-.56a1.72 1.72 0 0 1 .07 1.78 16.46 16.46 0 0 1 -1.65 2.06 6.11 6.11 0 0 1 -3.91 2.86c-.34.09-14.07 1.29-14.07 1.29l-4.59.46z" fill="#ffbe9d"/></g></svg>